<?xml version="1.0" encoding="UTF-8"?>
<!DOCTYPE svg PUBLIC "-//W3C//DTD SVG 1.1//EN" "http://www.w3.org/Graphics/SVG/1.1/DTD/svg11.dtd">
<svg xmlns="http://www.w3.org/2000/svg" version="1.1" width="500px" height="500px" style="shape-rendering:geometricPrecision; text-rendering:geometricPrecision; image-rendering:optimizeQuality; fill-rule:evenodd; clip-rule:evenodd" xmlns:xlink="http://www.w3.org/1999/xlink">
<g><path style="opacity:1" fill="#250b27" d="M 273.5,107.5 C 275.279,109.344 277.612,110.01 280.5,109.5C 285.537,112.071 290.871,114.071 296.5,115.5C 298.683,119.259 302.017,120.925 306.5,120.5C 307.68,122.913 309.68,123.913 312.5,123.5C 314.008,126.093 316.341,127.426 319.5,127.5C 320.492,127.328 321.158,127.662 321.5,128.5C 324.079,132.553 327.746,134.886 332.5,135.5C 337.781,138.78 342.781,142.447 347.5,146.5C 348.419,149.089 350.086,151.089 352.5,152.5C 357.628,157.321 360.794,163.321 362,170.5C 362.667,175.5 362.667,180.5 362,185.5C 361.768,186.737 361.268,187.737 360.5,188.5C 359.912,182.854 359.246,182.521 358.5,187.5C 356.409,187.682 354.409,187.348 352.5,186.5C 350.667,188.149 349,189.816 347.5,191.5C 354.105,175.48 350.438,162.313 336.5,152C 329.977,147.242 323.311,142.742 316.5,138.5C 306.773,132.801 296.773,127.468 286.5,122.5C 281.631,118.58 275.964,116.58 269.5,116.5C 247.587,111.551 225.587,111.218 203.5,115.5C 200.5,116.167 197.5,116.833 194.5,117.5C 195.933,116.167 197.267,114.667 198.5,113C 198.167,112.833 197.833,112.667 197.5,112.5C 191.576,112.798 185.576,113.798 179.5,115.5C 189.394,111.48 199.728,108.647 210.5,107C 203.352,104.363 196.019,102.363 188.5,101C 178.162,95.1664 168.162,88.8331 158.5,82C 153.945,79.5551 149.278,77.3885 144.5,75.5C 146.828,72.6646 149.828,70.8313 153.5,70C 167.076,65.8117 180.742,65.4784 194.5,69C 207.356,73.8562 216.19,82.6895 221,95.5C 238.614,99.5858 256.114,103.586 273.5,107.5 Z"/></g>
<g><path style="opacity:1" fill="#5d2c28" d="M 218.5,105.5 C 221.428,106.82 224.761,107.486 228.5,107.5C 232.018,107.498 235.351,107.165 238.5,106.5C 239.473,106.987 240.473,107.487 241.5,108C 233.507,108.5 225.507,108.666 217.5,108.5C 217.263,107.209 217.596,106.209 218.5,105.5 Z"/></g>
<g><path style="opacity:1" fill="#e3985e" d="M 238.5,106.5 C 235.351,107.165 232.018,107.498 228.5,107.5C 224.761,107.486 221.428,106.82 218.5,105.5C 218.5,104.5 218.5,103.5 218.5,102.5C 225.225,103.514 231.892,104.848 238.5,106.5 Z"/></g>
<g><path style="opacity:1" fill="#567e8e" d="M 170.5,73.5 C 187.325,70.5062 201.158,75.5062 212,88.5C 212.982,89.7589 213.315,91.0922 213,92.5C 207.142,87.6034 200.642,84.1034 193.5,82C 198.865,87.6995 204.531,93.0328 210.5,98C 205.78,97.815 201.447,96.315 197.5,93.5C 196.707,94.3554 197.04,95.1887 198.5,96C 200.67,97.5862 203.004,98.9196 205.5,100C 198.141,99.8792 191.474,97.5458 185.5,93C 178.913,86.7002 171.58,81.3668 163.5,77C 165.713,75.3838 168.047,74.2172 170.5,73.5 Z"/></g>
<g><path style="opacity:1" fill="#4a4a57" d="M 273.5,107.5 C 276.067,107.721 278.401,108.388 280.5,109.5C 277.612,110.01 275.279,109.344 273.5,107.5 Z"/></g>
<g><path style="opacity:0.424" fill="#839697" d="M 280.5,109.5 C 286.285,110.536 291.618,112.536 296.5,115.5C 290.871,114.071 285.537,112.071 280.5,109.5 Z"/></g>
<g><path style="opacity:1" fill="#2f283a" d="M 269.5,116.5 C 275.964,116.58 281.631,118.58 286.5,122.5C 285.833,122.5 285.167,122.5 284.5,122.5C 279.32,120.736 274.32,118.736 269.5,116.5 Z"/></g>
<g><path style="opacity:1" fill="#55828f" d="M 203.5,115.5 C 231.924,117.206 257.258,127.04 279.5,145C 294.5,159.333 309.5,173.667 324.5,188C 325.793,188.49 327.127,188.657 328.5,188.5C 328.5,189.167 328.5,189.833 328.5,190.5C 305.597,183.608 282.263,178.608 258.5,175.5C 265.508,169.491 271.842,162.825 277.5,155.5C 278.59,154.391 278.59,153.391 277.5,152.5C 264.979,159.501 252.313,166.334 239.5,173C 221.844,172.789 204.178,172.622 186.5,172.5C 186.808,168.405 187.641,164.405 189,160.5C 191.564,154.455 193.897,148.455 196,142.5C 187.472,152.021 180.139,162.355 174,173.5C 173.586,173.957 173.086,174.291 172.5,174.5C 172.167,173.167 171.833,171.833 171.5,170.5C 173.422,157.337 177.422,145.337 183.5,134.5C 170.864,146.104 163.864,160.438 162.5,177.5C 160.738,177.357 159.071,177.691 157.5,178.5C 153.97,166.665 155.137,155.332 161,144.5C 169.046,131.62 180.213,122.62 194.5,117.5C 197.5,116.833 200.5,116.167 203.5,115.5 Z"/></g>
<g><path style="opacity:1" fill="#4b4c58" d="M 296.5,115.5 C 300.151,116.659 303.485,118.326 306.5,120.5C 302.017,120.925 298.683,119.259 296.5,115.5 Z"/></g>
<g><path style="opacity:1" fill="#230726" d="M 194.5,117.5 C 180.213,122.62 169.046,131.62 161,144.5C 155.137,155.332 153.97,166.665 157.5,178.5C 159.071,177.691 160.738,177.357 162.5,177.5C 163.864,160.438 170.864,146.104 183.5,134.5C 177.422,145.337 173.422,157.337 171.5,170.5C 171.833,171.833 172.167,173.167 172.5,174.5C 173.086,174.291 173.586,173.957 174,173.5C 180.139,162.355 187.472,152.021 196,142.5C 193.897,148.455 191.564,154.455 189,160.5C 187.641,164.405 186.808,168.405 186.5,172.5C 204.178,172.622 221.844,172.789 239.5,173C 252.313,166.334 264.979,159.501 277.5,152.5C 278.59,153.391 278.59,154.391 277.5,155.5C 271.842,162.825 265.508,169.491 258.5,175.5C 282.263,178.608 305.597,183.608 328.5,190.5C 333.059,192.632 337.892,194.299 343,195.5C 344.715,194.396 346.215,193.062 347.5,191.5C 349,189.816 350.667,188.149 352.5,186.5C 354.409,187.348 356.409,187.682 358.5,187.5C 359.246,182.521 359.912,182.854 360.5,188.5C 357.779,196.069 352.946,202.069 346,206.5C 345.433,209.168 344.933,211.834 344.5,214.5C 344.611,215.117 344.944,215.617 345.5,216C 344.207,216.49 342.873,216.657 341.5,216.5C 341.604,219.09 340.937,221.423 339.5,223.5C 340.225,224.867 340.892,226.2 341.5,227.5C 337.686,226.343 335.852,228.01 336,232.5C 334.984,231.366 334.317,231.699 334,233.5C 334.571,229.019 334.405,224.685 333.5,220.5C 327.437,218.701 321.437,216.701 315.5,214.5C 306.558,212.556 297.558,210.889 288.5,209.5C 284.971,207.577 280.971,206.911 276.5,207.5C 271.18,206.761 265.846,206.094 260.5,205.5C 249.441,203.094 238.107,202.094 226.5,202.5C 220.167,202.667 213.833,202.833 207.5,203C 205.618,203.198 203.952,203.698 202.5,204.5C 199.873,205.092 197.206,205.425 194.5,205.5C 190.837,205.952 187.17,206.452 183.5,207C 182.584,207.278 181.918,207.778 181.5,208.5C 175.369,208.75 170.369,211.083 166.5,215.5C 165.883,215.611 165.383,215.944 165,216.5C 164.95,222.01 164.283,227.343 163,232.5C 161.256,231.351 161.089,230.017 162.5,228.5C 161.302,228.06 160.135,227.727 159,227.5C 158.632,222.22 155.798,220.22 150.5,221.5C 148.218,220.61 145.885,220.444 143.5,221C 141.963,222.11 141.297,223.61 141.5,225.5C 146.051,227.046 149.384,230.046 151.5,234.5C 153.291,236.184 154.791,238.184 156,240.5C 156.667,239.167 157.333,239.167 158,240.5C 158.17,246.478 155.337,248.478 149.5,246.5C 147.462,243.327 146.129,239.994 145.5,236.5C 144.784,233.402 143.284,230.736 141,228.5C 140.571,233.047 139.738,237.381 138.5,241.5C 137.347,247.319 137.181,253.319 138,259.5C 139.049,262.187 140.549,264.52 142.5,266.5C 145.612,273.507 147.946,280.84 149.5,288.5C 149.789,291.649 149.289,294.649 148,297.5C 147.125,294.599 145.958,291.932 144.5,289.5C 141.994,281.827 139.161,274.161 136,266.5C 134.026,260.489 132.859,254.323 132.5,248C 133.251,238.826 134.084,229.659 135,220.5C 137.527,216.823 141.027,214.489 145.5,213.5C 142.556,204.84 141.889,196.007 143.5,187C 136.005,174.537 135.505,161.703 142,148.5C 150.629,133.034 163.129,122.034 179.5,115.5C 185.576,113.798 191.576,112.798 197.5,112.5C 197.833,112.667 198.167,112.833 198.5,113C 197.267,114.667 195.933,116.167 194.5,117.5 Z"/></g>
<g><path style="opacity:1" fill="#595f69" d="M 306.5,120.5 C 308.819,120.992 310.819,121.992 312.5,123.5C 309.68,123.913 307.68,122.913 306.5,120.5 Z"/></g>
<g><path style="opacity:1" fill="#5c646d" d="M 312.5,123.5 C 315.331,124.079 317.664,125.412 319.5,127.5C 316.341,127.426 314.008,126.093 312.5,123.5 Z"/></g>
<g><path style="opacity:0.64" fill="#8cb0a8" d="M 284.5,122.5 C 285.167,122.5 285.833,122.5 286.5,122.5C 296.773,127.468 306.773,132.801 316.5,138.5C 315.494,138.938 315.494,139.604 316.5,140.5C 305.049,135.803 294.382,129.803 284.5,122.5 Z"/></g>
<g><path style="opacity:0.902" fill="#45404f" d="M 321.5,128.5 C 325.439,130.446 329.106,132.779 332.5,135.5C 327.746,134.886 324.079,132.553 321.5,128.5 Z"/></g>
<g><path style="opacity:1" fill="#f6f6f7" d="M 316.5,138.5 C 323.311,142.742 329.977,147.242 336.5,152C 350.438,162.313 354.105,175.48 347.5,191.5C 346.215,193.062 344.715,194.396 343,195.5C 337.892,194.299 333.059,192.632 328.5,190.5C 328.5,189.833 328.5,189.167 328.5,188.5C 334.981,177.682 335.148,166.682 329,155.5C 325.316,149.993 321.149,144.993 316.5,140.5C 315.494,139.604 315.494,138.938 316.5,138.5 Z"/></g>
<g><path style="opacity:0.604" fill="#636f74" d="M 347.5,146.5 C 349.914,147.911 351.581,149.911 352.5,152.5C 350.086,151.089 348.419,149.089 347.5,146.5 Z"/></g>
<g><path style="opacity:1" fill="#567e8e" d="M 152.5,194.5 C 157.492,194.001 162.492,193.501 167.5,193C 162.594,192.66 157.927,192.493 153.5,192.5C 163.809,185.931 175.142,182.431 187.5,182C 228.109,180.657 268.109,184.99 307.5,195C 314.664,197.136 318.664,201.97 319.5,209.5C 302.526,205.898 285.526,202.398 268.5,199C 231.22,193.585 194.554,196.251 158.5,207C 156.262,210.489 154.595,210.323 153.5,206.5C 153.876,204.617 154.876,203.117 156.5,202C 162.556,200.522 168.556,199.188 174.5,198C 166.507,197.5 158.507,197.334 150.5,197.5C 150.285,195.821 150.952,194.821 152.5,194.5 Z"/></g>
<g><path style="opacity:1" fill="#211832" d="M 241.5,186.5 C 232.161,186.334 222.827,186.5 213.5,187C 213.167,187.333 212.833,187.667 212.5,188C 214.708,188.191 216.708,188.691 218.5,189.5C 209.841,188.963 201.174,188.463 192.5,188C 208.936,185.55 225.27,185.05 241.5,186.5 Z"/></g>
<g><path style="opacity:1" fill="#230a27" d="M 241.5,186.5 C 247.506,187.223 253.506,188.056 259.5,189C 270.5,192.667 281.5,196.333 292.5,200C 267.63,197.242 242.963,193.742 218.5,189.5C 216.708,188.691 214.708,188.191 212.5,188C 212.833,187.667 213.167,187.333 213.5,187C 222.827,186.5 232.161,186.334 241.5,186.5 Z"/></g>
<g><path style="opacity:1" fill="#2f455b" d="M 153.5,192.5 C 157.927,192.493 162.594,192.66 167.5,193C 162.492,193.501 157.492,194.001 152.5,194.5C 152.328,193.508 152.662,192.842 153.5,192.5 Z"/></g>
<g><path style="opacity:1" fill="#390f1a" d="M 260.5,205.5 C 241.199,203.349 221.866,203.016 202.5,204.5C 203.952,203.698 205.618,203.198 207.5,203C 213.833,202.833 220.167,202.667 226.5,202.5C 238.107,202.094 249.441,203.094 260.5,205.5 Z"/></g>
<g><path style="opacity:1" fill="#90e9d0" d="M 325.5,200.5 C 329.725,201.879 334.058,202.879 338.5,203.5C 338.5,206.833 338.5,210.167 338.5,213.5C 334.508,212.503 330.508,211.503 326.5,210.5C 325.513,207.232 325.18,203.898 325.5,200.5 Z"/></g>
<g><path style="opacity:1" fill="#e99b55" d="M 260.5,205.5 C 263.149,207.109 266.149,207.943 269.5,208C 268.5,208.333 267.5,208.667 266.5,209C 269.54,209.32 272.54,209.32 275.5,209C 275.955,211.312 276.955,213.312 278.5,215C 275.967,216.916 275.967,218.916 278.5,221C 275.026,221.941 272.026,223.441 269.5,225.5C 269.167,225.5 268.833,225.5 268.5,225.5C 260.316,225.174 252.316,225.508 244.5,226.5C 238.122,226.705 231.789,226.372 225.5,225.5C 218.461,221.264 210.794,218.597 202.5,217.5C 192.42,214.216 182.753,215.383 173.5,221C 171.74,221.965 171.406,223.132 172.5,224.5C 174.075,223.544 175.742,222.877 177.5,222.5C 178.5,222.5 179.5,222.5 180.5,222.5C 180.786,228.259 180.452,233.925 179.5,239.5C 178.508,239.328 177.842,239.662 177.5,240.5C 174.985,242.182 172.985,244.348 171.5,247C 171.836,248.03 172.503,248.53 173.5,248.5C 174.978,248.238 176.311,248.571 177.5,249.5C 176.814,251.064 176.981,252.731 178,254.5C 178.561,253.978 179.228,253.645 180,253.5C 181.371,254.581 182.871,255.415 184.5,256C 182.893,257.049 182.227,258.549 182.5,260.5C 185.328,261.497 187.995,261.497 190.5,260.5C 191.833,260.5 193.167,260.5 194.5,260.5C 201.775,260.566 208.442,258.899 214.5,255.5C 218.462,255.013 222.296,254.013 226,252.5C 229.608,252.961 233.108,253.795 236.5,255C 232.457,257.337 228.957,256.837 226,253.5C 223.919,255.324 224.085,256.991 226.5,258.5C 225.088,259.806 223.421,260.64 221.5,261C 222.552,262.716 221.886,263.716 219.5,264C 220.973,264.71 221.64,265.876 221.5,267.5C 221.5,269.5 221.5,271.5 221.5,273.5C 221.286,275.144 221.62,276.644 222.5,278C 219.81,278.771 217.144,279.604 214.5,280.5C 215.506,281.396 215.506,282.062 214.5,282.5C 213.41,281.273 212.076,280.44 210.5,280C 213.31,276.953 212.643,275.62 208.5,276C 207.944,276.383 207.611,276.883 207.5,277.5C 205.897,276.323 204.564,276.489 203.5,278C 197.175,278.5 190.842,278.666 184.5,278.5C 182.407,277.955 180.407,277.122 178.5,276C 175.586,272.6 172.92,269.1 170.5,265.5C 168.767,259.654 168.1,253.654 168.5,247.5C 168.917,238.664 167.917,229.997 165.5,221.5C 165.672,219.452 166.005,217.452 166.5,215.5C 170.369,211.083 175.369,208.75 181.5,208.5C 186.124,208.237 190.458,207.237 194.5,205.5C 197.206,205.425 199.873,205.092 202.5,204.5C 221.866,203.016 241.199,203.349 260.5,205.5 Z"/></g>
<g><path style="opacity:1" fill="#ad7151" d="M 194.5,205.5 C 190.458,207.237 186.124,208.237 181.5,208.5C 181.918,207.778 182.584,207.278 183.5,207C 187.17,206.452 190.837,205.952 194.5,205.5 Z"/></g>
<g><path style="opacity:1" fill="#4f2220" d="M 276.5,207.5 C 280.971,206.911 284.971,207.577 288.5,209.5C 284.295,209.283 280.295,208.617 276.5,207.5 Z"/></g>
<g><path style="opacity:1" fill="#e3985a" d="M 260.5,205.5 C 265.846,206.094 271.18,206.761 276.5,207.5C 280.295,208.617 284.295,209.283 288.5,209.5C 297.558,210.889 306.558,212.556 315.5,214.5C 314.082,216.308 312.082,216.975 309.5,216.5C 304.821,216.334 300.155,216.501 295.5,217C 293.942,217.21 292.609,217.71 291.5,218.5C 284.799,220.025 278.466,222.358 272.5,225.5C 271.5,225.5 270.5,225.5 269.5,225.5C 272.026,223.441 275.026,221.941 278.5,221C 275.967,218.916 275.967,216.916 278.5,215C 276.955,213.312 275.955,211.312 275.5,209C 272.54,209.32 269.54,209.32 266.5,209C 267.5,208.667 268.5,208.333 269.5,208C 266.149,207.943 263.149,207.109 260.5,205.5 Z"/></g>
<g><path style="opacity:1" fill="#290b25" d="M 344.5,214.5 C 348.49,214.999 352.49,215.499 356.5,216C 359.034,216.516 361.2,217.683 363,219.5C 369.266,240.986 367.266,261.653 357,281.5C 355.54,286.469 354.206,291.469 353,296.5C 351.285,299.717 348.785,302.05 345.5,303.5C 345.721,302.265 346.388,301.265 347.5,300.5C 347.291,299.914 346.957,299.414 346.5,299C 343.833,298.667 341.167,298.333 338.5,298C 336.574,297.578 335.574,296.411 335.5,294.5C 339.089,298.287 342.589,298.287 346,294.5C 349.772,282.955 354.105,271.622 359,260.5C 361.476,249.532 360.81,238.865 357,228.5C 354.251,232.594 353.418,236.927 354.5,241.5C 354.294,243.549 353.461,243.883 352,242.5C 351.506,244.134 351.34,245.801 351.5,247.5C 349.162,250.139 346.995,249.806 345,246.5C 345.109,247.769 344.942,248.769 344.5,249.5C 343.624,249.369 342.957,249.702 342.5,250.5C 344.117,254.089 343.45,257.089 340.5,259.5C 338.167,259.5 335.833,259.5 333.5,259.5C 334.911,257.461 336.911,256.461 339.5,256.5C 339.657,255.127 339.49,253.793 339,252.5C 338.722,253.416 338.222,254.082 337.5,254.5C 337.833,251.833 338.167,249.167 338.5,246.5C 338.755,243.984 339.589,241.65 341,239.5C 346.314,234.02 351.814,228.686 357.5,223.5C 354.764,220.695 351.43,219.862 347.5,221C 345.266,223.063 343.266,225.229 341.5,227.5C 340.892,226.2 340.225,224.867 339.5,223.5C 340.937,221.423 341.604,219.09 341.5,216.5C 342.873,216.657 344.207,216.49 345.5,216C 344.944,215.617 344.611,215.117 344.5,214.5 Z"/></g>
<g><path style="opacity:1" fill="#240424" d="M 202.5,217.5 C 210.794,218.597 218.461,221.264 225.5,225.5C 225.62,226.586 226.287,227.253 227.5,227.5C 232.172,228.5 236.838,229.5 241.5,230.5C 240.5,231.167 239.5,231.833 238.5,232.5C 239.516,235.134 239.516,237.8 238.5,240.5C 236.05,245.409 232.05,248.409 226.5,249.5C 222.858,250.08 219.191,250.58 215.5,251C 216.993,252.156 216.826,252.99 215,253.5C 213.346,251.737 211.513,251.404 209.5,252.5C 209.306,250.93 209.306,249.43 209.5,248C 206.111,248.187 202.778,248.021 199.5,247.5C 200.5,246.833 201.5,246.167 202.5,245.5C 195.602,242.337 188.436,241.671 181,243.5C 178.725,243.722 177.559,242.722 177.5,240.5C 177.842,239.662 178.508,239.328 179.5,239.5C 181.423,235.971 182.089,231.971 181.5,227.5C 182.305,224.522 182.638,221.522 182.5,218.5C 189.134,217.503 195.8,217.17 202.5,217.5 Z"/></g>
<g><path style="opacity:1" fill="#240423" d="M 309.5,216.5 C 313.301,217.639 317.301,218.472 321.5,219C 323.391,220.442 325.391,221.609 327.5,222.5C 327.953,223.458 328.619,224.292 329.5,225C 329,225.167 328.5,225.333 328,225.5C 324.686,224.718 321.52,223.718 318.5,222.5C 317.349,227.65 317.183,232.984 318,238.5C 318.383,239.056 318.883,239.389 319.5,239.5C 319.5,240.5 319.5,241.5 319.5,242.5C 321.103,242.312 322.437,242.812 323.5,244C 320.649,245.289 317.649,245.789 314.5,245.5C 301.263,244.844 300.596,246.678 312.5,251C 310.866,251.494 309.199,251.66 307.5,251.5C 302.941,251.289 298.441,250.622 294,249.5C 291.041,249.856 291.208,250.522 294.5,251.5C 294.5,252.833 294.5,254.167 294.5,255.5C 292.473,255.662 290.473,255.495 288.5,255C 291.028,254.002 291.028,253.169 288.5,252.5C 286.218,253.223 283.884,253.557 281.5,253.5C 272.726,252.201 265.56,248.201 260,241.5C 259.503,239.19 259.337,236.857 259.5,234.5C 259.097,231.594 257.431,229.761 254.5,229C 258.833,228.667 263.167,228.333 267.5,228C 269.491,227.626 271.158,226.793 272.5,225.5C 279.19,224.159 285.523,221.825 291.5,218.5C 292.609,217.71 293.942,217.21 295.5,217C 300.155,216.501 304.821,216.334 309.5,216.5 Z"/></g>
<g><path style="opacity:1" fill="#3b1220" d="M 202.5,217.5 C 195.8,217.17 189.134,217.503 182.5,218.5C 182.638,221.522 182.305,224.522 181.5,227.5C 181.5,225.5 181.5,223.5 181.5,221.5C 179.901,221.232 178.568,221.566 177.5,222.5C 175.742,222.877 174.075,223.544 172.5,224.5C 171.406,223.132 171.74,221.965 173.5,221C 182.753,215.383 192.42,214.216 202.5,217.5 Z"/></g>
<g><path style="opacity:1" fill="#cd895e" d="M 315.5,214.5 C 321.437,216.701 327.437,218.701 333.5,220.5C 333.802,223.059 333.468,225.393 332.5,227.5C 333.323,221.93 330.989,219.43 325.5,220C 326.381,220.708 327.047,221.542 327.5,222.5C 325.391,221.609 323.391,220.442 321.5,219C 317.301,218.472 313.301,217.639 309.5,216.5C 312.082,216.975 314.082,216.308 315.5,214.5 Z"/></g>
<g><path style="opacity:1" fill="#3a0f1d" d="M 291.5,218.5 C 285.523,221.825 279.19,224.159 272.5,225.5C 278.466,222.358 284.799,220.025 291.5,218.5 Z"/></g>
<g><path style="opacity:1" fill="#66342a" d="M 177.5,222.5 C 178.568,221.566 179.901,221.232 181.5,221.5C 181.5,223.5 181.5,225.5 181.5,227.5C 182.089,231.971 181.423,235.971 179.5,239.5C 180.452,233.925 180.786,228.259 180.5,222.5C 179.5,222.5 178.5,222.5 177.5,222.5 Z"/></g>
<g><path style="opacity:1" fill="#83718a" d="M 207.5,228.5 C 210.152,227.738 212.818,228.238 215.5,230C 212.78,230.045 210.114,229.545 207.5,228.5 Z"/></g>
<g><path style="opacity:1" fill="#63526e" d="M 297.5,227.5 C 296.833,227.5 296.5,227.833 296.5,228.5C 295.518,227.859 294.518,227.193 293.5,226.5C 289.929,228.303 286.262,229.47 282.5,230C 285.944,227.944 289.611,226.444 293.5,225.5C 295.171,225.668 296.504,226.335 297.5,227.5 Z"/></g>
<g><path style="opacity:1" fill="#2f091d" d="M 225.5,225.5 C 231.789,226.372 238.122,226.705 244.5,226.5C 250.357,226.399 256.19,226.733 262,227.5C 264.544,227.664 266.71,226.997 268.5,225.5C 268.833,225.5 269.167,225.5 269.5,225.5C 270.5,225.5 271.5,225.5 272.5,225.5C 271.158,226.793 269.491,227.626 267.5,228C 263.167,228.333 258.833,228.667 254.5,229C 257.431,229.761 259.097,231.594 259.5,234.5C 253.62,228.326 247.453,227.993 241,233.5C 240.844,236.191 240.011,238.524 238.5,240.5C 239.516,237.8 239.516,235.134 238.5,232.5C 239.5,231.833 240.5,231.167 241.5,230.5C 236.838,229.5 232.172,228.5 227.5,227.5C 226.287,227.253 225.62,226.586 225.5,225.5 Z"/></g>
<g><path style="opacity:1" fill="#c68357" d="M 244.5,226.5 C 252.316,225.508 260.316,225.174 268.5,225.5C 266.71,226.997 264.544,227.664 262,227.5C 256.19,226.733 250.357,226.399 244.5,226.5 Z"/></g>
<g><path style="opacity:1" fill="#e99957" d="M 338.5,246.5 C 337.208,248.255 336.208,250.255 335.5,252.5C 334.808,251.975 334.308,251.308 334,250.5C 333.502,247.518 333.335,244.518 333.5,241.5C 335.649,236.535 338.316,231.868 341.5,227.5C 343.266,225.229 345.266,223.063 347.5,221C 351.43,219.862 354.764,220.695 357.5,223.5C 351.814,228.686 346.314,234.02 341,239.5C 339.589,241.65 338.755,243.984 338.5,246.5 Z"/></g>
<g><path style="opacity:1" fill="#bfcedc" d="M 297.5,227.5 C 299.326,229.147 300.66,231.147 301.5,233.5C 298.713,234.477 295.713,234.81 292.5,234.5C 292.5,234.167 292.5,233.833 292.5,233.5C 295.91,233.616 297.244,231.95 296.5,228.5C 296.5,227.833 296.833,227.5 297.5,227.5 Z"/></g>
<g><path style="opacity:1" fill="#4e1e1d" d="M 318.5,222.5 C 318.26,228.227 318.593,233.894 319.5,239.5C 318.883,239.389 318.383,239.056 318,238.5C 317.183,232.984 317.349,227.65 318.5,222.5 Z"/></g>
<g><path style="opacity:1" fill="#e69a5b" d="M 150.5,221.5 C 157.735,226.413 162.735,233.08 165.5,241.5C 165.665,244.85 165.498,248.183 165,251.5C 164.29,252.973 163.124,253.64 161.5,253.5C 163.048,244.412 159.715,238.079 151.5,234.5C 149.384,230.046 146.051,227.046 141.5,225.5C 141.297,223.61 141.963,222.11 143.5,221C 145.885,220.444 148.218,220.61 150.5,221.5 Z"/></g>
<g><path style="opacity:1" fill="#29081e" d="M 166.5,215.5 C 166.005,217.452 165.672,219.452 165.5,221.5C 167.917,229.997 168.917,238.664 168.5,247.5C 167.732,248.263 167.232,249.263 167,250.5C 166.819,247.305 166.319,244.305 165.5,241.5C 162.735,233.08 157.735,226.413 150.5,221.5C 155.798,220.22 158.632,222.22 159,227.5C 160.135,227.727 161.302,228.06 162.5,228.5C 161.089,230.017 161.256,231.351 163,232.5C 164.283,227.343 164.95,222.01 165,216.5C 165.383,215.944 165.883,215.611 166.5,215.5 Z"/></g>
<g><path style="opacity:1" fill="#bdc2d2" d="M 204.5,233.5 C 203.081,234.451 201.415,234.784 199.5,234.5C 198.448,234.649 197.448,234.483 196.5,234C 197.237,228.583 200.237,226.25 205.5,227C 202.924,227.782 200.924,229.282 199.5,231.5C 200.85,232.95 202.516,233.617 204.5,233.5 Z"/></g>
<g><path style="opacity:1" fill="#c5875c" d="M 145.5,236.5 C 145.784,238.415 145.451,240.081 144.5,241.5C 144.702,239.011 144.202,236.677 143,234.5C 142.333,235.167 141.667,235.833 141,236.5C 139.928,242.455 139.428,248.455 139.5,254.5C 138.515,250.366 138.182,246.032 138.5,241.5C 139.738,237.381 140.571,233.047 141,228.5C 143.284,230.736 144.784,233.402 145.5,236.5 Z"/></g>
<g><path style="opacity:1" fill="#9b96aa" d="M 199.5,234.5 C 201.415,234.784 203.081,234.451 204.5,233.5C 210.212,233.456 215.879,233.289 221.5,233C 216.542,234.602 211.375,235.435 206,235.5C 203.639,235.496 201.473,235.163 199.5,234.5 Z"/></g>
<g><path style="opacity:1" fill="#471923" d="M 354.5,241.5 C 355.222,241.918 355.722,242.584 356,243.5C 356.667,248.167 356.667,252.833 356,257.5C 355.722,258.416 355.222,259.082 354.5,259.5C 355.397,254.86 355.564,250.194 355,245.5C 354.392,247.066 353.558,248.4 352.5,249.5C 352.672,248.508 352.338,247.842 351.5,247.5C 351.34,245.801 351.506,244.134 352,242.5C 353.461,243.883 354.294,243.549 354.5,241.5 Z"/></g>
<g><path style="opacity:1" fill="#b77a5b" d="M 181.5,245.5 C 183.527,245.338 185.527,245.505 187.5,246C 185.065,247.003 185.398,247.503 188.5,247.5C 189.726,247.48 190.726,247.147 191.5,246.5C 193.527,246.338 195.527,246.505 197.5,247C 196.473,247.513 195.473,248.013 194.5,248.5C 190.327,248.877 186.327,249.877 182.5,251.5C 182.611,250.883 182.944,250.383 183.5,250C 181.833,249.667 180.167,249.333 178.5,249C 180.246,248.529 181.913,247.862 183.5,247C 180.843,246.825 178.176,246.992 175.5,247.5C 177.102,245.926 179.102,245.259 181.5,245.5 Z"/></g>
<g><path style="opacity:1" fill="#c3815c" d="M 333.5,241.5 C 333.335,244.518 333.502,247.518 334,250.5C 334.308,251.308 334.808,251.975 335.5,252.5C 336.208,250.255 337.208,248.255 338.5,246.5C 338.167,249.167 337.833,251.833 337.5,254.5C 335.61,254.703 334.11,254.037 333,252.5C 332.19,248.642 332.357,244.976 333.5,241.5 Z"/></g>
<g><path style="opacity:1" fill="#c48559" d="M 155.5,256.5 C 154.549,255.081 154.216,253.415 154.5,251.5C 153.167,251.5 151.833,251.5 150.5,251.5C 150.357,253.262 150.691,254.929 151.5,256.5C 151.03,257.463 150.363,257.463 149.5,256.5C 147.896,255.713 147.229,254.38 147.5,252.5C 148.222,252.918 148.722,253.584 149,254.5C 149.202,252.744 149.702,251.078 150.5,249.5C 153.754,250.81 156.254,249.81 158,246.5C 156.533,249.552 155.699,252.885 155.5,256.5 Z"/></g>
<g><path style="opacity:1" fill="#d68f58" d="M 182.5,251.5 C 181.761,251.369 181.094,251.536 180.5,252C 185.426,252.767 190.092,252.267 194.5,250.5C 198.49,249.81 202.49,249.643 206.5,250C 200.812,252.18 195.146,254.347 189.5,256.5C 185.571,257.846 185.905,258.68 190.5,259C 185.206,259.818 185.206,260.318 190.5,260.5C 187.995,261.497 185.328,261.497 182.5,260.5C 182.227,258.549 182.893,257.049 184.5,256C 182.871,255.415 181.371,254.581 180,253.5C 179.228,253.645 178.561,253.978 178,254.5C 176.981,252.731 176.814,251.064 177.5,249.5C 176.311,248.571 174.978,248.238 173.5,248.5C 173.842,247.662 174.508,247.328 175.5,247.5C 178.176,246.992 180.843,246.825 183.5,247C 181.913,247.862 180.246,248.529 178.5,249C 180.167,249.333 181.833,249.667 183.5,250C 182.944,250.383 182.611,250.883 182.5,251.5 Z"/></g>
<g><path style="opacity:1" fill="#3e1219" d="M 194.5,248.5 C 193.737,249.268 192.737,249.768 191.5,250C 192.448,250.483 193.448,250.649 194.5,250.5C 190.092,252.267 185.426,252.767 180.5,252C 181.094,251.536 181.761,251.369 182.5,251.5C 186.327,249.877 190.327,248.877 194.5,248.5 Z"/></g>
<g><path style="opacity:1" fill="#b07456" d="M 351.5,247.5 C 352.338,247.842 352.672,248.508 352.5,249.5C 351.486,251.574 350.486,253.574 349.5,255.5C 349.942,251.616 348.275,249.616 344.5,249.5C 344.942,248.769 345.109,247.769 345,246.5C 346.995,249.806 349.162,250.139 351.5,247.5 Z"/></g>
<g><path style="opacity:1" fill="#2a0720" d="M 177.5,240.5 C 177.559,242.722 178.725,243.722 181,243.5C 188.436,241.671 195.602,242.337 202.5,245.5C 201.5,246.167 200.5,246.833 199.5,247.5C 202.778,248.021 206.111,248.187 209.5,248C 209.306,249.43 209.306,250.93 209.5,252.5C 211.513,251.404 213.346,251.737 215,253.5C 216.826,252.99 216.993,252.156 215.5,251C 219.191,250.58 222.858,250.08 226.5,249.5C 222.588,251.692 218.588,253.692 214.5,255.5C 207.867,256.96 201.2,258.293 194.5,259.5C 190.551,259.307 190.551,258.807 194.5,258C 192.618,257.802 190.952,257.302 189.5,256.5C 195.146,254.347 200.812,252.18 206.5,250C 202.49,249.643 198.49,249.81 194.5,250.5C 193.448,250.649 192.448,250.483 191.5,250C 192.737,249.768 193.737,249.268 194.5,248.5C 195.473,248.013 196.473,247.513 197.5,247C 195.527,246.505 193.527,246.338 191.5,246.5C 190.198,245.237 188.198,244.571 185.5,244.5C 183.955,244.511 182.622,244.844 181.5,245.5C 179.102,245.259 177.102,245.926 175.5,247.5C 174.508,247.328 173.842,247.662 173.5,248.5C 172.503,248.53 171.836,248.03 171.5,247C 172.985,244.348 174.985,242.182 177.5,240.5 Z"/></g>
<g><path style="opacity:1" fill="#461b1d" d="M 181.5,245.5 C 182.622,244.844 183.955,244.511 185.5,244.5C 188.198,244.571 190.198,245.237 191.5,246.5C 190.726,247.147 189.726,247.48 188.5,247.5C 185.398,247.503 185.065,247.003 187.5,246C 185.527,245.505 183.527,245.338 181.5,245.5 Z"/></g>
<g><path style="opacity:1" fill="#3d1322" d="M 151.5,234.5 C 159.715,238.079 163.048,244.412 161.5,253.5C 163.124,253.64 164.29,252.973 165,251.5C 165.498,248.183 165.665,244.85 165.5,241.5C 166.319,244.305 166.819,247.305 167,250.5C 167.232,249.263 167.732,248.263 168.5,247.5C 168.1,253.654 168.767,259.654 170.5,265.5C 169.883,265.389 169.383,265.056 169,264.5C 167.844,260.877 166.844,257.211 166,253.5C 164.573,255.787 162.739,256.12 160.5,254.5C 159.548,256.045 159.215,257.712 159.5,259.5C 157.57,259.229 156.236,258.229 155.5,256.5C 155.699,252.885 156.533,249.552 158,246.5C 156.254,249.81 153.754,250.81 150.5,249.5C 149.702,251.078 149.202,252.744 149,254.5C 148.722,253.584 148.222,252.918 147.5,252.5C 146.869,250.097 145.869,247.764 144.5,245.5C 143.516,248.428 143.183,251.428 143.5,254.5C 142.035,250.125 142.369,245.792 144.5,241.5C 145.451,240.081 145.784,238.415 145.5,236.5C 146.129,239.994 147.462,243.327 149.5,246.5C 155.337,248.478 158.17,246.478 158,240.5C 157.333,239.167 156.667,239.167 156,240.5C 154.791,238.184 153.291,236.184 151.5,234.5 Z"/></g>
<g><path style="opacity:1" fill="#e69956" d="M 332.5,227.5 C 329.944,234.932 328.944,242.599 329.5,250.5C 329.351,255.575 328.685,260.575 327.5,265.5C 327.649,266.552 327.483,267.552 327,268.5C 316.333,281.188 303.5,283.854 288.5,276.5C 288.167,276.667 287.833,276.833 287.5,277C 288.381,277.708 289.047,278.542 289.5,279.5C 290.779,282.395 291.779,285.395 292.5,288.5C 292.36,290.03 291.693,291.03 290.5,291.5C 289.833,290.167 288.833,289.167 287.5,288.5C 283.489,283.326 278.155,280.492 271.5,280C 276.125,276.684 277.792,272.517 276.5,267.5C 273.496,261.169 268.496,257.502 261.5,256.5C 254.587,257.392 252.254,261.059 254.5,267.5C 257.544,272.377 261.878,274.211 267.5,273C 265.608,272.027 263.608,271.36 261.5,271C 262.973,270.29 263.64,269.124 263.5,267.5C 265.167,267.5 266.833,267.5 268.5,267.5C 270.674,267.75 272.341,268.75 273.5,270.5C 272.836,275.67 269.836,278.837 264.5,280C 253.025,284.895 241.692,284.562 230.5,279C 225.176,274.658 225.176,270.491 230.5,266.5C 232.167,266.5 233.833,266.5 235.5,266.5C 238.134,270.453 236.8,272.619 231.5,273C 239.262,274.111 243.929,270.778 245.5,263C 245.613,261.301 244.947,260.134 243.5,259.5C 237.575,255.367 231.908,255.867 226.5,261C 225.177,261.816 224.511,262.983 224.5,264.5C 223.272,265.306 222.272,266.306 221.5,267.5C 221.64,265.876 220.973,264.71 219.5,264C 221.886,263.716 222.552,262.716 221.5,261C 223.421,260.64 225.088,259.806 226.5,258.5C 224.085,256.991 223.919,255.324 226,253.5C 228.957,256.837 232.457,257.337 236.5,255C 233.108,253.795 229.608,252.961 226,252.5C 222.296,254.013 218.462,255.013 214.5,255.5C 218.588,253.692 222.588,251.692 226.5,249.5C 232.05,248.409 236.05,245.409 238.5,240.5C 240.011,238.524 240.844,236.191 241,233.5C 247.453,227.993 253.62,228.326 259.5,234.5C 259.337,236.857 259.503,239.19 260,241.5C 265.56,248.201 272.726,252.201 281.5,253.5C 287.653,256.881 294.319,258.881 301.5,259.5C 304.976,260.643 308.642,260.81 312.5,260C 311.672,259.085 310.672,258.419 309.5,258C 311.577,257.808 313.577,257.308 315.5,256.5C 315.376,255.893 315.043,255.56 314.5,255.5C 307.522,255.571 300.855,254.238 294.5,251.5C 291.208,250.522 291.041,249.856 294,249.5C 298.441,250.622 302.941,251.289 307.5,251.5C 310.509,252.283 313.676,252.95 317,253.5C 317.5,253.167 318,252.833 318.5,252.5C 316.163,249.678 313.163,247.845 309.5,247C 311.134,246.506 312.801,246.34 314.5,246.5C 318.693,246.674 322.693,247.674 326.5,249.5C 326.704,244.66 324.371,241.326 319.5,239.5C 318.593,233.894 318.26,228.227 318.5,222.5C 321.52,223.718 324.686,224.718 328,225.5C 328.5,225.333 329,225.167 329.5,225C 328.619,224.292 327.953,223.458 327.5,222.5C 327.047,221.542 326.381,220.708 325.5,220C 330.989,219.43 333.323,221.93 332.5,227.5 Z"/></g>
<g><path style="opacity:1" fill="#330b1f" d="M 294.5,251.5 C 300.855,254.238 307.522,255.571 314.5,255.5C 311.359,256.321 308.025,256.821 304.5,257C 305.672,257.419 306.672,258.085 307.5,259C 305.527,259.495 303.527,259.662 301.5,259.5C 294.319,258.881 287.653,256.881 281.5,253.5C 283.884,253.557 286.218,253.223 288.5,252.5C 291.028,253.169 291.028,254.002 288.5,255C 290.473,255.495 292.473,255.662 294.5,255.5C 294.5,254.167 294.5,252.833 294.5,251.5 Z"/></g>
<g><path style="opacity:1" fill="#864e3c" d="M 314.5,245.5 C 314.5,245.833 314.5,246.167 314.5,246.5C 312.801,246.34 311.134,246.506 309.5,247C 313.163,247.845 316.163,249.678 318.5,252.5C 318,252.833 317.5,253.167 317,253.5C 313.676,252.95 310.509,252.283 307.5,251.5C 309.199,251.66 310.866,251.494 312.5,251C 300.596,246.678 301.263,244.844 314.5,245.5 Z"/></g>
<g><path style="opacity:1" fill="#330d1d" d="M 319.5,239.5 C 324.371,241.326 326.704,244.66 326.5,249.5C 322.693,247.674 318.693,246.674 314.5,246.5C 314.5,246.167 314.5,245.833 314.5,245.5C 317.649,245.789 320.649,245.289 323.5,244C 322.437,242.812 321.103,242.312 319.5,242.5C 319.5,241.5 319.5,240.5 319.5,239.5 Z"/></g>
<g><path style="opacity:1" fill="#5a556c" d="M 301.5,233.5 C 302.289,233.783 302.956,234.283 303.5,235C 296.986,235.82 290.653,235.653 284.5,234.5C 287.167,234.5 289.833,234.5 292.5,234.5C 295.713,234.81 298.713,234.477 301.5,233.5 Z"/></g>
<g><path style="opacity:1" fill="#908aa0" d="M 292.5,233.5 C 292.5,233.833 292.5,234.167 292.5,234.5C 289.833,234.5 287.167,234.5 284.5,234.5C 282.396,234.799 280.396,234.466 278.5,233.5C 279.333,233.167 280.167,232.833 281,232.5C 284.792,233.31 288.625,233.644 292.5,233.5 Z"/></g>
<g><path style="opacity:1" fill="#2b0622" d="M 276.5,267.5 C 276.785,269.288 276.452,270.955 275.5,272.5C 274.818,271.757 274.151,271.091 273.5,270.5C 272.341,268.75 270.674,267.75 268.5,267.5C 266.052,266.527 263.385,266.194 260.5,266.5C 260.762,267.978 260.429,269.311 259.5,270.5C 258.274,268.722 256.607,267.722 254.5,267.5C 252.254,261.059 254.587,257.392 261.5,256.5C 268.496,257.502 273.496,261.169 276.5,267.5 Z"/></g>
<g><path style="opacity:1" fill="#340e1a" d="M 138.5,241.5 C 138.182,246.032 138.515,250.366 139.5,254.5C 139.904,258.643 140.904,262.643 142.5,266.5C 140.549,264.52 139.049,262.187 138,259.5C 137.181,253.319 137.347,247.319 138.5,241.5 Z"/></g>
<g><path style="opacity:1" fill="#cd8a5a" d="M 214.5,255.5 C 208.442,258.899 201.775,260.566 194.5,260.5C 194.5,260.167 194.5,259.833 194.5,259.5C 201.2,258.293 207.867,256.96 214.5,255.5 Z"/></g>
<g><path style="opacity:1" fill="#814636" d="M 189.5,256.5 C 190.952,257.302 192.618,257.802 194.5,258C 190.551,258.807 190.551,259.307 194.5,259.5C 194.5,259.833 194.5,260.167 194.5,260.5C 193.167,260.5 191.833,260.5 190.5,260.5C 185.206,260.318 185.206,259.818 190.5,259C 185.905,258.68 185.571,257.846 189.5,256.5 Z"/></g>
<g><path style="opacity:1" fill="#a06245" d="M 314.5,255.5 C 315.043,255.56 315.376,255.893 315.5,256.5C 313.577,257.308 311.577,257.808 309.5,258C 310.672,258.419 311.672,259.085 312.5,260C 308.642,260.81 304.976,260.643 301.5,259.5C 303.527,259.662 305.527,259.495 307.5,259C 306.672,258.085 305.672,257.419 304.5,257C 308.025,256.821 311.359,256.321 314.5,255.5 Z"/></g>
<g><path style="opacity:1" fill="#6f3830" d="M 333.5,259.5 C 335.833,259.5 338.167,259.5 340.5,259.5C 338.735,260.461 336.735,260.795 334.5,260.5C 334.806,263.385 334.473,266.052 333.5,268.5C 333.5,265.5 333.5,262.5 333.5,259.5 Z"/></g>
<g><path style="opacity:1" fill="#bf7e59" d="M 329.5,250.5 C 330.638,253.304 330.805,256.304 330,259.5C 329.76,261.852 328.927,263.852 327.5,265.5C 328.685,260.575 329.351,255.575 329.5,250.5 Z"/></g>
<g><path style="opacity:1" fill="#2b0623" d="M 243.5,259.5 C 243.279,260.735 242.612,261.735 241.5,262.5C 243.67,264.294 243.67,266.294 241.5,268.5C 239.286,270.924 238.286,270.257 238.5,266.5C 237.5,266.5 236.5,266.5 235.5,266.5C 233.833,266.5 232.167,266.5 230.5,266.5C 228.533,266.261 226.699,266.594 225,267.5C 224.517,266.552 224.351,265.552 224.5,264.5C 224.511,262.983 225.177,261.816 226.5,261C 231.908,255.867 237.575,255.367 243.5,259.5 Z"/></g>
<g><path style="opacity:1" fill="#df965b" d="M 335.5,294.5 C 333.73,292.887 332.564,290.887 332,288.5C 331.201,281.723 331.701,275.057 333.5,268.5C 334.473,266.052 334.806,263.385 334.5,260.5C 336.735,260.795 338.735,260.461 340.5,259.5C 343.45,257.089 344.117,254.089 342.5,250.5C 342.957,249.702 343.624,249.369 344.5,249.5C 348.275,249.616 349.942,251.616 349.5,255.5C 349.5,256.167 349.5,256.833 349.5,257.5C 346.127,260.178 342.794,262.844 339.5,265.5C 337.891,268.149 337.057,271.149 337,274.5C 336.333,278.5 336.333,282.5 337,286.5C 341.459,289.676 344.293,288.509 345.5,283C 344.022,281.522 342.522,280.022 341,278.5C 340.251,277.365 340.417,276.365 341.5,275.5C 343.316,276.815 344.983,278.315 346.5,280C 347.448,280.483 348.448,280.649 349.5,280.5C 350.055,276.613 348.721,273.613 345.5,271.5C 348.996,267.828 351.996,263.828 354.5,259.5C 355.222,259.082 355.722,258.416 356,257.5C 356.667,252.833 356.667,248.167 356,243.5C 355.722,242.584 355.222,241.918 354.5,241.5C 353.418,236.927 354.251,232.594 357,228.5C 360.81,238.865 361.476,249.532 359,260.5C 354.105,271.622 349.772,282.955 346,294.5C 342.589,298.287 339.089,298.287 335.5,294.5 Z"/></g>
<g><path style="opacity:1" fill="#63302d" d="M 349.5,257.5 C 347.653,262.012 344.32,264.679 339.5,265.5C 342.794,262.844 346.127,260.178 349.5,257.5 Z"/></g>
<g><path style="opacity:1" fill="#471822" d="M 268.5,267.5 C 266.833,267.5 265.167,267.5 263.5,267.5C 263.64,269.124 262.973,270.29 261.5,271C 263.608,271.36 265.608,272.027 267.5,273C 261.878,274.211 257.544,272.377 254.5,267.5C 256.607,267.722 258.274,268.722 259.5,270.5C 260.429,269.311 260.762,267.978 260.5,266.5C 263.385,266.194 266.052,266.527 268.5,267.5 Z"/></g>
<g><path style="opacity:1" fill="#390b1c" d="M 243.5,259.5 C 244.947,260.134 245.613,261.301 245.5,263C 243.929,270.778 239.262,274.111 231.5,273C 236.8,272.619 238.134,270.453 235.5,266.5C 236.5,266.5 237.5,266.5 238.5,266.5C 238.286,270.257 239.286,270.924 241.5,268.5C 243.67,266.294 243.67,264.294 241.5,262.5C 242.612,261.735 243.279,260.735 243.5,259.5 Z"/></g>
<g><path style="opacity:1" fill="#2e0922" d="M 147.5,252.5 C 147.229,254.38 147.896,255.713 149.5,256.5C 151.557,261.363 155.224,264.03 160.5,264.5C 162.113,271.08 162.613,277.747 162,284.5C 158.075,290.067 154.908,289.567 152.5,283C 153.076,281.286 154.243,280.119 156,279.5C 156.808,277.421 156.641,275.421 155.5,273.5C 155.968,275.113 155.301,276.613 153.5,278C 149.912,278.611 148.746,277.111 150,273.5C 151.487,272.845 152.653,271.845 153.5,270.5C 150.479,267.314 147.646,263.98 145,260.5C 143.872,258.655 143.372,256.655 143.5,254.5C 143.183,251.428 143.516,248.428 144.5,245.5C 145.869,247.764 146.869,250.097 147.5,252.5 Z"/></g>
<g><path style="opacity:0.999" fill="#250724" d="M 170.5,265.5 C 172.92,269.1 175.586,272.6 178.5,276C 180.407,277.122 182.407,277.955 184.5,278.5C 189.397,280.769 194.563,281.102 200,279.5C 202.971,281.81 205.471,281.144 207.5,277.5C 208.239,277.369 208.906,277.536 209.5,278C 205.592,281.217 203.925,285.384 204.5,290.5C 204.833,292.5 205.167,294.5 205.5,296.5C 206.107,296.376 206.44,296.043 206.5,295.5C 208.026,294.895 209.026,293.729 209.5,292C 210.448,291.517 211.448,291.351 212.5,291.5C 212.5,292.5 212.5,293.5 212.5,294.5C 210.204,300.086 208.204,305.752 206.5,311.5C 203.252,320.493 200.918,329.827 199.5,339.5C 197.589,339.574 196.422,340.574 196,342.5C 195.503,340.19 195.337,337.857 195.5,335.5C 195.5,332.833 195.5,330.167 195.5,327.5C 196.901,317.947 196.734,308.281 195,298.5C 194.506,300.134 194.34,301.801 194.5,303.5C 194.265,309.849 193.765,316.183 193,322.5C 190.841,333.123 189.007,343.789 187.5,354.5C 186.512,349.36 186.179,344.026 186.5,338.5C 187.71,330.867 188.21,323.2 188,315.5C 187.057,318.824 186.224,322.157 185.5,325.5C 183.854,320.073 182.854,314.406 182.5,308.5C 182.702,306.011 182.202,303.677 181,301.5C 180.667,307.833 180.333,314.167 180,320.5C 177.84,327.195 176.007,333.861 174.5,340.5C 175.13,336.61 175.13,332.777 174.5,329C 177.198,322.861 176.698,322.361 173,327.5C 172.667,329.167 172.333,330.833 172,332.5C 171.667,331.833 171.333,331.167 171,330.5C 170.292,331.381 169.458,332.047 168.5,332.5C 169.766,327.035 171.433,321.701 173.5,316.5C 172.443,309.713 170.943,303.046 169,296.5C 164.887,303.319 159.054,305.486 151.5,303C 146.432,299.99 144.099,295.49 144.5,289.5C 145.958,291.932 147.125,294.599 148,297.5C 149.289,294.649 149.789,291.649 149.5,288.5C 155.542,300.563 161.375,300.23 167,287.5C 167.818,284.893 168.318,282.226 168.5,279.5C 167.666,276.124 166.499,272.79 165,269.5C 164.502,266.518 164.335,263.518 164.5,260.5C 162.708,260.634 161.042,260.301 159.5,259.5C 159.215,257.712 159.548,256.045 160.5,254.5C 162.739,256.12 164.573,255.787 166,253.5C 166.844,257.211 167.844,260.877 169,264.5C 169.383,265.056 169.883,265.389 170.5,265.5 Z"/></g>
<g><path style="opacity:1" fill="#cc8a59" d="M 207.5,277.5 C 205.471,281.144 202.971,281.81 200,279.5C 194.563,281.102 189.397,280.769 184.5,278.5C 190.842,278.666 197.175,278.5 203.5,278C 204.564,276.489 205.897,276.323 207.5,277.5 Z"/></g>
<g><path style="opacity:1" fill="#dd9456" d="M 221.5,273.5 C 223.266,275.771 225.266,277.937 227.5,280C 217.505,281.311 210.505,286.477 206.5,295.5C 206.44,296.043 206.107,296.376 205.5,296.5C 205.167,294.5 204.833,292.5 204.5,290.5C 203.925,285.384 205.592,281.217 209.5,278C 208.906,277.536 208.239,277.369 207.5,277.5C 207.611,276.883 207.944,276.383 208.5,276C 212.643,275.62 213.31,276.953 210.5,280C 212.076,280.44 213.41,281.273 214.5,282.5C 215.506,282.062 215.506,281.396 214.5,280.5C 217.144,279.604 219.81,278.771 222.5,278C 221.62,276.644 221.286,275.144 221.5,273.5 Z"/></g>
<g><path style="opacity:1" fill="#270523" d="M 333.5,220.5 C 334.405,224.685 334.571,229.019 334,233.5C 334.317,231.699 334.984,231.366 336,232.5C 335.852,228.01 337.686,226.343 341.5,227.5C 338.316,231.868 335.649,236.535 333.5,241.5C 332.357,244.976 332.19,248.642 333,252.5C 334.11,254.037 335.61,254.703 337.5,254.5C 338.222,254.082 338.722,253.416 339,252.5C 339.49,253.793 339.657,255.127 339.5,256.5C 336.911,256.461 334.911,257.461 333.5,259.5C 333.5,262.5 333.5,265.5 333.5,268.5C 331.701,275.057 331.201,281.723 332,288.5C 332.564,290.887 333.73,292.887 335.5,294.5C 335.574,296.411 336.574,297.578 338.5,298C 341.167,298.333 343.833,298.667 346.5,299C 346.957,299.414 347.291,299.914 347.5,300.5C 346.388,301.265 345.721,302.265 345.5,303.5C 339.039,304.956 333.873,302.956 330,297.5C 328.647,301.083 327.481,304.749 326.5,308.5C 324.001,311.999 323.335,315.832 324.5,320C 322.632,318.4 320.299,317.233 317.5,316.5C 317.666,311.821 317.499,307.155 317,302.5C 315.711,305.351 315.211,308.351 315.5,311.5C 315.5,311.833 315.5,312.167 315.5,312.5C 314.835,314.698 314.168,317.031 313.5,319.5C 312.784,320.311 311.95,320.978 311,321.5C 309.739,320.342 308.573,320.342 307.5,321.5C 306.648,317.206 305.982,312.873 305.5,308.5C 305.664,305.813 305.497,303.146 305,300.5C 304.107,299.289 303.274,299.289 302.5,300.5C 301.811,302.444 301.311,304.444 301,306.5C 300.517,305.552 300.351,304.552 300.5,303.5C 299.5,303.5 298.5,303.5 297.5,303.5C 296.769,310.435 295.936,310.769 295,304.5C 293.633,303.476 292.8,303.976 292.5,306C 294.415,311.301 295.749,316.801 296.5,322.5C 295.833,321.5 295.167,320.5 294.5,319.5C 292.859,309.554 289.526,300.22 284.5,291.5C 284.67,290.178 284.337,289.011 283.5,288C 284.819,287.805 286.153,287.972 287.5,288.5C 288.833,289.167 289.833,290.167 290.5,291.5C 291.657,293.138 292.824,294.804 294,296.5C 294.577,292.112 294.244,287.779 293,283.5C 292.34,281.676 291.173,280.343 289.5,279.5C 289.047,278.542 288.381,277.708 287.5,277C 287.833,276.833 288.167,276.667 288.5,276.5C 303.5,283.854 316.333,281.188 327,268.5C 327.483,267.552 327.649,266.552 327.5,265.5C 328.927,263.852 329.76,261.852 330,259.5C 330.805,256.304 330.638,253.304 329.5,250.5C 328.944,242.599 329.944,234.932 332.5,227.5C 333.468,225.393 333.802,223.059 333.5,220.5 Z"/></g>
<g><path style="opacity:1" fill="#370f21" d="M 224.5,264.5 C 224.351,265.552 224.517,266.552 225,267.5C 226.699,266.594 228.533,266.261 230.5,266.5C 225.176,270.491 225.176,274.658 230.5,279C 241.692,284.562 253.025,284.895 264.5,280C 269.836,278.837 272.836,275.67 273.5,270.5C 274.151,271.091 274.818,271.757 275.5,272.5C 276.452,270.955 276.785,269.288 276.5,267.5C 277.792,272.517 276.125,276.684 271.5,280C 278.155,280.492 283.489,283.326 287.5,288.5C 286.153,287.972 284.819,287.805 283.5,288C 284.337,289.011 284.67,290.178 284.5,291.5C 281.939,286.608 277.939,283.608 272.5,282.5C 265.938,281.252 260.271,283.252 255.5,288.5C 249.804,290.238 244.47,289.572 239.5,286.5C 237.882,284.684 235.882,283.351 233.5,282.5C 223.562,280.977 216.562,284.977 212.5,294.5C 212.5,293.5 212.5,292.5 212.5,291.5C 211.448,291.351 210.448,291.517 209.5,292C 209.026,293.729 208.026,294.895 206.5,295.5C 210.505,286.477 217.505,281.311 227.5,280C 225.266,277.937 223.266,275.771 221.5,273.5C 221.5,271.5 221.5,269.5 221.5,267.5C 222.272,266.306 223.272,265.306 224.5,264.5 Z"/></g>
<g><path style="opacity:1" fill="#763b31" d="M 246.5,277.5 C 246.047,278.458 245.381,279.292 244.5,280C 247.146,280.497 249.813,280.664 252.5,280.5C 248.592,281.798 244.592,281.632 240.5,280C 242.287,278.681 244.287,277.848 246.5,277.5 Z"/></g>
<g><path style="opacity:1" fill="#330c1e" d="M 246.5,277.5 C 250.394,277.11 254.06,277.777 257.5,279.5C 255.955,280.452 254.288,280.785 252.5,280.5C 249.813,280.664 247.146,280.497 244.5,280C 245.381,279.292 246.047,278.458 246.5,277.5 Z"/></g>
<g><path style="opacity:1" fill="#2e0922" d="M 354.5,259.5 C 351.996,263.828 348.996,267.828 345.5,271.5C 348.721,273.613 350.055,276.613 349.5,280.5C 348.448,280.649 347.448,280.483 346.5,280C 344.983,278.315 343.316,276.815 341.5,275.5C 340.417,276.365 340.251,277.365 341,278.5C 342.522,280.022 344.022,281.522 345.5,283C 344.293,288.509 341.459,289.676 337,286.5C 336.333,282.5 336.333,278.5 337,274.5C 337.057,271.149 337.891,268.149 339.5,265.5C 344.32,264.679 347.653,262.012 349.5,257.5C 349.5,256.833 349.5,256.167 349.5,255.5C 350.486,253.574 351.486,251.574 352.5,249.5C 353.558,248.4 354.392,247.066 355,245.5C 355.564,250.194 355.397,254.86 354.5,259.5 Z"/></g>
<g><path style="opacity:1" fill="#d08d5d" d="M 272.5,282.5 C 270.833,282.5 269.167,282.5 267.5,282.5C 267.784,284.415 267.451,286.081 266.5,287.5C 265.709,285.944 265.376,284.61 265.5,283.5C 263.479,284.855 261.812,286.521 260.5,288.5C 259.334,287.387 257.667,287.387 255.5,288.5C 260.271,283.252 265.938,281.252 272.5,282.5 Z"/></g>
<g><path style="opacity:1" fill="#e79a55" d="M 233.5,282.5 C 232.567,285.63 233.901,287.63 237.5,288.5C 238.182,287.757 238.849,287.091 239.5,286.5C 244.47,289.572 249.804,290.238 255.5,288.5C 257.667,287.387 259.334,287.387 260.5,288.5C 262.017,288.489 263.184,287.823 264,286.5C 264.671,287.252 265.504,287.586 266.5,287.5C 267.451,286.081 267.784,284.415 267.5,282.5C 269.167,282.5 270.833,282.5 272.5,282.5C 277.939,283.608 281.939,286.608 284.5,291.5C 289.526,300.22 292.859,309.554 294.5,319.5C 294.82,322.898 294.487,326.232 293.5,329.5C 292.583,328.873 291.583,328.539 290.5,328.5C 274.417,313.226 255.417,308.059 233.5,313C 225.863,315.816 218.863,319.649 212.5,324.5C 211.07,324.421 209.736,324.754 208.5,325.5C 207.719,324.271 207.219,322.938 207,321.5C 205.369,323.481 205.535,325.481 207.5,327.5C 206.726,328.711 205.893,328.711 205,327.5C 204.775,322.117 205.275,316.783 206.5,311.5C 208.204,305.752 210.204,300.086 212.5,294.5C 216.562,284.977 223.562,280.977 233.5,282.5 Z"/></g>
<g><path style="opacity:1" fill="#aa6949" d="M 233.5,282.5 C 235.882,283.351 237.882,284.684 239.5,286.5C 238.849,287.091 238.182,287.757 237.5,288.5C 233.901,287.63 232.567,285.63 233.5,282.5 Z"/></g>
<g><path style="opacity:1" fill="#7e4025" d="M 266.5,287.5 C 265.504,287.586 264.671,287.252 264,286.5C 263.184,287.823 262.017,288.489 260.5,288.5C 261.812,286.521 263.479,284.855 265.5,283.5C 265.376,284.61 265.709,285.944 266.5,287.5 Z"/></g>
<g><path style="opacity:1" fill="#de965a" d="M 144.5,241.5 C 142.369,245.792 142.035,250.125 143.5,254.5C 143.372,256.655 143.872,258.655 145,260.5C 147.646,263.98 150.479,267.314 153.5,270.5C 152.653,271.845 151.487,272.845 150,273.5C 148.746,277.111 149.912,278.611 153.5,278C 155.301,276.613 155.968,275.113 155.5,273.5C 156.641,275.421 156.808,277.421 156,279.5C 154.243,280.119 153.076,281.286 152.5,283C 154.908,289.567 158.075,290.067 162,284.5C 162.613,277.747 162.113,271.08 160.5,264.5C 155.224,264.03 151.557,261.363 149.5,256.5C 150.363,257.463 151.03,257.463 151.5,256.5C 150.691,254.929 150.357,253.262 150.5,251.5C 151.833,251.5 153.167,251.5 154.5,251.5C 154.216,253.415 154.549,255.081 155.5,256.5C 156.236,258.229 157.57,259.229 159.5,259.5C 161.042,260.301 162.708,260.634 164.5,260.5C 164.335,263.518 164.502,266.518 165,269.5C 166.499,272.79 167.666,276.124 168.5,279.5C 168.318,282.226 167.818,284.893 167,287.5C 161.375,300.23 155.542,300.563 149.5,288.5C 147.946,280.84 145.612,273.507 142.5,266.5C 140.904,262.643 139.904,258.643 139.5,254.5C 139.428,248.455 139.928,242.455 141,236.5C 141.667,235.833 142.333,235.167 143,234.5C 144.202,236.677 144.702,239.011 144.5,241.5 Z"/></g>
<g><path style="opacity:1" fill="#ca8b5e" d="M 289.5,279.5 C 291.173,280.343 292.34,281.676 293,283.5C 294.244,287.779 294.577,292.112 294,296.5C 292.824,294.804 291.657,293.138 290.5,291.5C 291.693,291.03 292.36,290.03 292.5,288.5C 291.779,285.395 290.779,282.395 289.5,279.5 Z"/></g>
<g><path style="opacity:1" fill="#5c616a" d="M 195.5,327.5 C 195.826,319.316 195.492,311.316 194.5,303.5C 194.34,301.801 194.506,300.134 195,298.5C 196.734,308.281 196.901,317.947 195.5,327.5 Z"/></g>
<g><path style="opacity:1" fill="#5c626b" d="M 317.5,316.5 C 317.5,317.167 317.5,317.833 317.5,318.5C 316.833,316.167 316.167,313.833 315.5,311.5C 315.211,308.351 315.711,305.351 317,302.5C 317.499,307.155 317.666,311.821 317.5,316.5 Z"/></g>
<g><path style="opacity:1" fill="#2f2437" d="M 182.5,308.5 C 182.854,314.406 183.854,320.073 185.5,325.5C 183.405,333.4 181.738,341.4 180.5,349.5C 179.37,347.332 179.37,344.998 180.5,342.5C 180.518,340.627 180.018,340.294 179,341.5C 178.226,346.988 177.393,352.321 176.5,357.5C 176.052,344.803 177.885,332.469 182,320.5C 182.499,316.514 182.666,312.514 182.5,308.5 Z"/></g>
<g><path style="opacity:1" fill="#879e9f" d="M 182.5,308.5 C 182.666,312.514 182.499,316.514 182,320.5C 177.885,332.469 176.052,344.803 176.5,357.5C 176.672,358.492 176.338,359.158 175.5,359.5C 174.68,353.203 174.347,346.869 174.5,340.5C 176.007,333.861 177.84,327.195 180,320.5C 180.333,314.167 180.667,307.833 181,301.5C 182.202,303.677 182.702,306.011 182.5,308.5 Z"/></g>
<g><path style="opacity:1" fill="#d7935e" d="M 206.5,311.5 C 205.275,316.783 204.775,322.117 205,327.5C 205.893,328.711 206.726,328.711 207.5,327.5C 205.535,325.481 205.369,323.481 207,321.5C 207.219,322.938 207.719,324.271 208.5,325.5C 209.736,324.754 211.07,324.421 212.5,324.5C 209.794,326.871 207.461,329.537 205.5,332.5C 204.721,330.073 203.554,330.073 202,332.5C 200.333,341.158 200.166,349.825 201.5,358.5C 199.952,358.179 199.285,357.179 199.5,355.5C 199.5,352.833 199.5,350.167 199.5,347.5C 199.5,344.833 199.5,342.167 199.5,339.5C 200.918,329.827 203.252,320.493 206.5,311.5 Z"/></g>
<g><path style="opacity:1" fill="#d3985f" d="M 294.5,319.5 C 295.167,320.5 295.833,321.5 296.5,322.5C 298.622,331.693 299.622,341.026 299.5,350.5C 298.414,350.38 297.747,349.713 297.5,348.5C 296.909,343.823 295.576,339.49 293.5,335.5C 292.773,333.046 291.773,330.713 290.5,328.5C 291.583,328.539 292.583,328.873 293.5,329.5C 294.487,326.232 294.82,322.898 294.5,319.5 Z"/></g>
<g><path style="opacity:1" fill="#280a27" d="M 290.5,328.5 C 291.773,330.713 292.773,333.046 293.5,335.5C 293.36,341.425 291.36,346.592 287.5,351C 288.056,351.383 288.389,351.883 288.5,352.5C 291.65,353.707 294.984,354.707 298.5,355.5C 296.257,356.474 293.924,356.808 291.5,356.5C 287.072,356.201 282.739,355.535 278.5,354.5C 276.333,353.359 274,352.359 271.5,351.5C 272.55,350.571 272.55,349.905 271.5,349.5C 271.5,349.167 271.5,348.833 271.5,348.5C 272.688,347.316 273.855,347.316 275,348.5C 275.246,345.11 275.746,341.777 276.5,338.5C 276.167,338.167 275.833,337.833 275.5,337.5C 271.667,344.477 270,343.81 270.5,335.5C 269.5,335.5 268.5,335.5 267.5,335.5C 265.833,335.5 264.167,335.5 262.5,335.5C 262.784,337.415 262.451,339.081 261.5,340.5C 261.125,338.302 260.458,336.302 259.5,334.5C 260.684,333.312 260.684,332.145 259.5,331C 252.833,330.333 246.167,330.333 239.5,331C 237.825,331.985 236.158,332.819 234.5,333.5C 233.833,333.5 233.5,333.833 233.5,334.5C 234.014,336.512 234.18,338.512 234,340.5C 232.827,337.59 230.994,336.923 228.5,338.5C 226.83,338.751 225.33,339.418 224,340.5C 223.617,339.944 223.117,339.611 222.5,339.5C 222.158,338.662 221.492,338.328 220.5,338.5C 219.833,339.167 219.167,339.833 218.5,340.5C 218.167,340.5 217.833,340.5 217.5,340.5C 216.539,342.265 216.205,344.265 216.5,346.5C 215.5,346.5 214.5,346.5 213.5,346.5C 212.167,345.5 210.833,344.5 209.5,343.5C 208.791,342.596 207.791,342.263 206.5,342.5C 205.676,339.236 205.342,335.902 205.5,332.5C 207.461,329.537 209.794,326.871 212.5,324.5C 218.863,319.649 225.863,315.816 233.5,313C 255.417,308.059 274.417,313.226 290.5,328.5 Z"/></g>
<g><path style="opacity:1" fill="#e9e9ef" d="M 277.5,328.5 C 277.719,329.675 277.386,330.675 276.5,331.5C 274.739,330.965 273.406,329.965 272.5,328.5C 274.048,326.078 275.714,326.078 277.5,328.5 Z"/></g>
<g><path style="opacity:1" fill="#d9dfe1" d="M 227.5,326.5 C 227.5,326.833 227.5,327.167 227.5,327.5C 226.566,328.568 226.232,329.901 226.5,331.5C 224.833,331.5 223.167,331.5 221.5,331.5C 221.5,330.167 221.5,328.833 221.5,327.5C 223.189,326.696 224.855,325.696 226.5,324.5C 227.298,324.957 227.631,325.624 227.5,326.5 Z"/></g>
<g><path style="opacity:1" fill="#a2afb5" d="M 276.5,323.5 C 278.597,324.879 278.93,326.545 277.5,328.5C 275.714,326.078 274.048,326.078 272.5,328.5C 271.655,327.329 270.989,325.995 270.5,324.5C 272.265,323.539 274.265,323.205 276.5,323.5 Z"/></g>
<g><path style="opacity:1" fill="#dee2e7" d="M 259.5,323.5 C 261.833,323.5 264.167,323.5 266.5,323.5C 267.461,325.265 267.795,327.265 267.5,329.5C 264.039,328.603 261.373,326.603 259.5,323.5 Z"/></g>
<g><path style="opacity:1" fill="#e9e8ed" d="M 250.5,322.5 C 252.5,322.5 254.5,322.5 256.5,322.5C 256.5,323.833 256.5,325.167 256.5,326.5C 253.708,326.378 251.708,325.044 250.5,322.5 Z"/></g>
<g><path style="opacity:1" fill="#3c3448" d="M 228.5,319.5 C 228.369,320.239 228.536,320.906 229,321.5C 233.389,320.325 237.889,319.659 242.5,319.5C 244.288,319.215 245.955,319.548 247.5,320.5C 244.705,320.938 242.372,321.938 240.5,323.5C 239.732,322.737 239.232,321.737 239,320.5C 238.802,322.382 238.302,324.048 237.5,325.5C 237.5,324.5 237.5,323.5 237.5,322.5C 235.5,322.833 233.5,323.167 231.5,323.5C 231.5,325.167 231.5,326.833 231.5,328.5C 230.71,327.391 230.21,326.058 230,324.5C 229.764,326.119 228.931,327.119 227.5,327.5C 227.5,327.167 227.5,326.833 227.5,326.5C 228.598,325.399 228.765,324.066 228,322.5C 227.329,321.748 226.496,321.414 225.5,321.5C 226.29,320.599 227.29,319.932 228.5,319.5 Z"/></g>
<g><path style="opacity:1" fill="#d5d6db" d="M 237.5,325.5 C 236.047,328.231 234.047,329.231 231.5,328.5C 231.5,326.833 231.5,325.167 231.5,323.5C 233.5,323.167 235.5,322.833 237.5,322.5C 237.5,323.5 237.5,324.5 237.5,325.5 Z"/></g>
<g><path style="opacity:1" fill="#e8ecf0" d="M 246.5,324.5 C 245.469,325.355 244.303,326.022 243,326.5C 242.235,326.43 241.735,326.097 241.5,325.5C 241.5,324.5 241.5,323.5 241.5,322.5C 243.781,322.077 245.448,322.744 246.5,324.5 Z"/></g>
<g><path style="opacity:1" fill="#6e7882" d="M 225.5,321.5 C 226.496,321.414 227.329,321.748 228,322.5C 228.765,324.066 228.598,325.399 227.5,326.5C 227.631,325.624 227.298,324.957 226.5,324.5C 224.855,325.696 223.189,326.696 221.5,327.5C 220.609,326.739 219.942,325.739 219.5,324.5C 221.243,322.962 223.243,321.962 225.5,321.5 Z"/></g>
<g><path style="opacity:1" fill="#6f7683" d="M 267.5,318.5 C 270.696,319.929 273.696,321.595 276.5,323.5C 274.265,323.205 272.265,323.539 270.5,324.5C 269.622,322.127 267.955,321.294 265.5,322C 266.056,322.383 266.389,322.883 266.5,323.5C 264.167,323.5 261.833,323.5 259.5,323.5C 257.562,319.831 254.562,318.664 250.5,320C 252.611,320.845 254.611,321.678 256.5,322.5C 254.5,322.5 252.5,322.5 250.5,322.5C 249.883,322.389 249.383,322.056 249,321.5C 248.148,322.571 247.315,323.571 246.5,324.5C 245.448,322.744 243.781,322.077 241.5,322.5C 241.5,323.5 241.5,324.5 241.5,325.5C 240.662,325.158 240.328,324.492 240.5,323.5C 242.372,321.938 244.705,320.938 247.5,320.5C 245.955,319.548 244.288,319.215 242.5,319.5C 244.397,318.195 246.731,317.529 249.5,317.5C 254.267,317.536 258.934,318.202 263.5,319.5C 265.045,319.489 266.378,319.156 267.5,318.5 Z"/></g>
<g><path style="opacity:1" fill="#a3adb2" d="M 267.5,318.5 C 266.378,319.156 265.045,319.489 263.5,319.5C 258.934,318.202 254.267,317.536 249.5,317.5C 246.731,317.529 244.397,318.195 242.5,319.5C 237.889,319.659 233.389,320.325 229,321.5C 228.536,320.906 228.369,320.239 228.5,319.5C 241.357,314.571 254.357,314.237 267.5,318.5 Z"/></g>
<g><path style="opacity:1" fill="#3e213e" d="M 259.5,334.5 C 257.5,334.5 255.5,334.5 253.5,334.5C 253.907,341.929 252.907,342.262 250.5,335.5C 246.628,333.539 244.128,334.539 243,338.5C 242.092,336.561 240.592,335.561 238.5,335.5C 238.5,336.5 238.5,337.5 238.5,338.5C 237.549,337.081 237.216,335.415 237.5,333.5C 236.5,333.5 235.5,333.5 234.5,333.5C 236.158,332.819 237.825,331.985 239.5,331C 246.167,330.333 252.833,330.333 259.5,331C 260.684,332.145 260.684,333.312 259.5,334.5 Z"/></g>
<g><path style="opacity:1" fill="#6f3c57" d="M 233.5,334.5 C 233.5,333.833 233.833,333.5 234.5,333.5C 235.5,333.5 236.5,333.5 237.5,333.5C 237.216,335.415 237.549,337.081 238.5,338.5C 238.657,339.873 238.49,341.207 238,342.5C 237.512,339.145 236.012,336.478 233.5,334.5 Z"/></g>
<g><path style="opacity:1" fill="#e67c9b" d="M 233.5,334.5 C 236.012,336.478 237.512,339.145 238,342.5C 238.49,341.207 238.657,339.873 238.5,338.5C 238.5,337.5 238.5,336.5 238.5,335.5C 240.592,335.561 242.092,336.561 243,338.5C 244.128,334.539 246.628,333.539 250.5,335.5C 252.907,342.262 253.907,341.929 253.5,334.5C 255.5,334.5 257.5,334.5 259.5,334.5C 260.458,336.302 261.125,338.302 261.5,340.5C 262.204,342.344 263.537,342.844 265.5,342C 267.229,340.211 267.896,338.044 267.5,335.5C 268.5,335.5 269.5,335.5 270.5,335.5C 270,343.81 271.667,344.477 275.5,337.5C 275.833,337.833 276.167,338.167 276.5,338.5C 275.746,341.777 275.246,345.11 275,348.5C 273.855,347.316 272.688,347.316 271.5,348.5C 271.116,345.95 269.616,344.617 267,344.5C 264.815,346.108 262.315,347.108 259.5,347.5C 259.66,345.801 259.494,344.134 259,342.5C 258.439,341.978 257.772,341.645 257,341.5C 255.333,342.5 253.667,343.5 252,344.5C 250.037,343.375 248.204,342.041 246.5,340.5C 245.614,341.325 245.281,342.325 245.5,343.5C 242.201,344.376 238.868,344.543 235.5,344C 234.953,343.075 234.287,342.242 233.5,341.5C 232.065,342.947 231.065,344.614 230.5,346.5C 229.326,345.486 228.66,344.153 228.5,342.5C 228.5,341.167 228.5,339.833 228.5,338.5C 230.994,336.923 232.827,337.59 234,340.5C 234.18,338.512 234.014,336.512 233.5,334.5 Z"/></g>
<g><path style="opacity:1" fill="#512746" d="M 267.5,335.5 C 267.896,338.044 267.229,340.211 265.5,342C 263.537,342.844 262.204,342.344 261.5,340.5C 262.451,339.081 262.784,337.415 262.5,335.5C 264.167,335.5 265.833,335.5 267.5,335.5 Z"/></g>
<g><path style="opacity:1" fill="#cc707e" d="M 220.5,338.5 C 221.492,338.328 222.158,338.662 222.5,339.5C 223.26,340.893 223.926,342.393 224.5,344C 224.472,345.07 224.139,345.903 223.5,346.5C 221.539,344.202 220.539,341.535 220.5,338.5 Z"/></g>
<g><path style="opacity:1" fill="#f3ecf1" d="M 271.5,348.5 C 271.5,348.833 271.5,349.167 271.5,349.5C 270.167,350.5 268.833,351.5 267.5,352.5C 264.855,350.758 261.855,350.091 258.5,350.5C 258.737,349.209 258.404,348.209 257.5,347.5C 256.833,347.5 256.167,347.5 255.5,347.5C 253.618,347.511 251.618,347.844 249.5,348.5C 248.281,347.737 247.281,346.737 246.5,345.5C 245.893,345.624 245.56,345.957 245.5,346.5C 245.167,347.167 244.833,347.833 244.5,348.5C 243.167,348.5 241.833,348.5 240.5,348.5C 239.883,348.389 239.383,348.056 239,347.5C 238.798,349.256 238.298,350.922 237.5,352.5C 236.522,352.023 235.689,351.357 235,350.5C 233.886,354.299 232.553,354.299 231,350.5C 230.51,349.207 230.343,347.873 230.5,346.5C 231.065,344.614 232.065,342.947 233.5,341.5C 234.287,342.242 234.953,343.075 235.5,344C 238.868,344.543 242.201,344.376 245.5,343.5C 245.281,342.325 245.614,341.325 246.5,340.5C 248.204,342.041 250.037,343.375 252,344.5C 253.667,343.5 255.333,342.5 257,341.5C 257.772,341.645 258.439,341.978 259,342.5C 259.494,344.134 259.66,345.801 259.5,347.5C 262.315,347.108 264.815,346.108 267,344.5C 269.616,344.617 271.116,345.95 271.5,348.5 Z"/></g>
<g><path style="opacity:1" fill="#685955" d="M 195.5,335.5 C 195.337,337.857 195.503,340.19 196,342.5C 196.422,340.574 197.589,339.574 199.5,339.5C 199.5,342.167 199.5,344.833 199.5,347.5C 198.778,347.082 198.278,346.416 198,345.5C 197.667,347.167 197.333,348.833 197,350.5C 196.667,349.833 196.333,349.167 196,348.5C 195.667,350.833 195.333,353.167 195,355.5C 194.501,350.177 194.334,344.844 194.5,339.5C 194.232,337.901 194.566,336.568 195.5,335.5 Z"/></g>
<g><path style="opacity:1" fill="#622b1f" d="M 206.5,342.5 C 207.791,342.263 208.791,342.596 209.5,343.5C 208.535,344.721 208.702,346.054 210,347.5C 212.664,351.657 215.497,355.657 218.5,359.5C 217.833,359.5 217.5,359.833 217.5,360.5C 212.831,355.171 209.164,349.171 206.5,342.5 Z"/></g>
<g><path style="opacity:1" fill="#3c151c" d="M 217.5,340.5 C 217.849,345.341 218.683,350.008 220,354.5C 218.521,351.172 216.355,348.506 213.5,346.5C 214.5,346.5 215.5,346.5 216.5,346.5C 216.205,344.265 216.539,342.265 217.5,340.5 Z"/></g>
<g><path style="opacity:1" fill="#5c3c54" d="M 228.5,338.5 C 228.5,339.833 228.5,341.167 228.5,342.5C 227.681,345.305 227.181,348.305 227,351.5C 226.003,349.677 224.836,348.01 223.5,346.5C 224.139,345.903 224.472,345.07 224.5,344C 223.926,342.393 223.26,340.893 222.5,339.5C 223.117,339.611 223.617,339.944 224,340.5C 225.33,339.418 226.83,338.751 228.5,338.5 Z"/></g>
<g><path style="opacity:1" fill="#d69268" d="M 286.5,342.5 C 288.225,342.843 288.725,343.843 288,345.5C 286.881,348.291 284.881,349.957 282,350.5C 281.167,350.167 280.333,349.833 279.5,349.5C 280.348,347.591 280.682,345.591 280.5,343.5C 282.735,343.795 284.735,343.461 286.5,342.5 Z"/></g>
<g><path style="opacity:1" fill="#88aba7" d="M 186.5,338.5 C 185.674,343.316 185.174,348.316 185,353.5C 183.89,355.037 182.39,355.703 180.5,355.5C 180.5,353.5 180.5,351.5 180.5,349.5C 181.738,341.4 183.405,333.4 185.5,325.5C 186.224,322.157 187.057,318.824 188,315.5C 188.21,323.2 187.71,330.867 186.5,338.5 Z"/></g>
<g><path style="opacity:1" fill="#5a5c70" d="M 245.5,346.5 C 245.56,345.957 245.893,345.624 246.5,345.5C 247.281,346.737 248.281,347.737 249.5,348.5C 251.618,347.844 253.618,347.511 255.5,347.5C 255.5,349.5 255.5,351.5 255.5,353.5C 250.477,353.464 247.143,351.13 245.5,346.5 Z"/></g>
<g><path style="opacity:1" fill="#6a6d80" d="M 257.5,347.5 C 258.404,348.209 258.737,349.209 258.5,350.5C 261.855,350.091 264.855,350.758 267.5,352.5C 260.853,357.665 257.52,355.998 257.5,347.5 Z"/></g>
<g><path style="opacity:1" fill="#8da99f" d="M 293.5,335.5 C 295.576,339.49 296.909,343.823 297.5,348.5C 297.747,349.713 298.414,350.38 299.5,350.5C 299.5,351.5 299.5,352.5 299.5,353.5C 295.821,353.276 292.154,352.942 288.5,352.5C 288.389,351.883 288.056,351.383 287.5,351C 291.36,346.592 293.36,341.425 293.5,335.5 Z"/></g>
<g><path style="opacity:1" fill="#eceff1" d="M 278.5,354.5 C 282.739,355.535 287.072,356.201 291.5,356.5C 308.344,361.641 325.677,364.641 343.5,365.5C 348.975,366.489 354.642,366.822 360.5,366.5C 360.5,365.167 360.5,363.833 360.5,362.5C 362.604,362.201 364.604,362.534 366.5,363.5C 365.873,364.417 365.539,365.417 365.5,366.5C 363.692,367.907 361.692,369.074 359.5,370C 351.135,370.623 342.802,370.29 334.5,369C 313.037,366.076 292.037,361.576 271.5,355.5C 273.717,354.631 276.05,354.298 278.5,354.5 Z"/></g>
<g><path style="opacity:1" fill="#8e998b" d="M 194.5,339.5 C 194.334,344.844 194.501,350.177 195,355.5C 195.333,353.167 195.667,350.833 196,348.5C 196.333,349.167 196.667,349.833 197,350.5C 197.333,348.833 197.667,347.167 198,345.5C 198.278,346.416 198.778,347.082 199.5,347.5C 199.5,350.167 199.5,352.833 199.5,355.5C 198.778,355.082 198.278,354.416 198,353.5C 197.667,353.833 197.333,354.167 197,354.5C 196.814,356.9 196.314,359.234 195.5,361.5C 194.749,360.624 194.249,359.624 194,358.5C 193.18,351.986 193.347,345.653 194.5,339.5 Z"/></g>
<g><path style="opacity:1" fill="#976046" d="M 247.5,356.5 C 241.667,357.4 236,357.4 230.5,356.5C 236.346,355.867 242.013,355.867 247.5,356.5 Z"/></g>
<g><path style="opacity:1" fill="#df9656" d="M 217.5,340.5 C 217.833,340.5 218.167,340.5 218.5,340.5C 220.089,347.692 224.089,353.025 230.5,356.5C 236,357.4 241.667,357.4 247.5,356.5C 261.299,360.282 274.633,365.282 287.5,371.5C 286.251,373.136 284.584,374.303 282.5,375C 279.148,375.838 275.815,376.671 272.5,377.5C 257.053,372.904 241.386,368.737 225.5,365C 222.405,364.065 220.071,362.231 218.5,359.5C 215.497,355.657 212.664,351.657 210,347.5C 208.702,346.054 208.535,344.721 209.5,343.5C 210.833,344.5 212.167,345.5 213.5,346.5C 216.355,348.506 218.521,351.172 220,354.5C 218.683,350.008 217.849,345.341 217.5,340.5 Z"/></g>
<g><path style="opacity:1" fill="#e79b58" d="M 205.5,332.5 C 205.342,335.902 205.676,339.236 206.5,342.5C 209.164,349.171 212.831,355.171 217.5,360.5C 223.007,369.011 230.341,375.345 239.5,379.5C 241.072,380.687 242.739,381.687 244.5,382.5C 241.781,382.603 239.115,382.269 236.5,381.5C 225.2,377.355 214.867,371.521 205.5,364C 203.561,362.568 202.228,360.735 201.5,358.5C 200.166,349.825 200.333,341.158 202,332.5C 203.554,330.073 204.721,330.073 205.5,332.5 Z"/></g>
<g><path style="opacity:1" fill="#665163" d="M 360.5,362.5 C 360.5,363.833 360.5,365.167 360.5,366.5C 354.642,366.822 348.975,366.489 343.5,365.5C 348.833,365.5 354.167,365.5 359.5,365.5C 359.263,364.209 359.596,363.209 360.5,362.5 Z"/></g>
<g><path style="opacity:1" fill="#578591" d="M 271.5,355.5 C 292.037,361.576 313.037,366.076 334.5,369C 342.802,370.29 351.135,370.623 359.5,370C 361.692,369.074 363.692,367.907 365.5,366.5C 363.841,373.287 362.508,380.12 361.5,387C 353.391,387.761 345.391,387.094 337.5,385C 329.102,382.651 320.769,380.151 312.5,377.5C 297.526,371.113 282.526,364.613 267.5,358C 268.693,356.905 270.027,356.072 271.5,355.5 Z"/></g>
<g><path style="opacity:1" fill="#58818e" d="M 186.5,338.5 C 186.179,344.026 186.512,349.36 187.5,354.5C 187.335,358.182 187.501,361.848 188,365.5C 191.089,370.406 193.923,375.406 196.5,380.5C 196.351,381.552 196.517,382.552 197,383.5C 199.39,384.891 201.057,386.891 202,389.5C 202.813,386.018 204.479,385.685 207,388.5C 208.512,386.043 209.846,386.043 211,388.5C 211.333,387.5 211.667,386.5 212,385.5C 212.977,388.102 214.144,390.602 215.5,393C 216.449,393.617 217.282,393.451 218,392.5C 219.451,394.464 221.284,395.797 223.5,396.5C 225.451,397.716 226.951,399.382 228,401.5C 228.483,400.552 228.649,399.552 228.5,398.5C 232.981,409.147 240.648,416.647 251.5,421C 240.619,421.04 230.619,418.04 221.5,412C 210.09,405.258 200.59,396.425 193,385.5C 195.595,397.84 202.095,407.674 212.5,415C 194.404,407.886 182.904,394.72 178,375.5C 177.099,370.129 176.266,364.796 175.5,359.5C 176.338,359.158 176.672,358.492 176.5,357.5C 177.393,352.321 178.226,346.988 179,341.5C 180.018,340.294 180.518,340.627 180.5,342.5C 179.37,344.998 179.37,347.332 180.5,349.5C 180.5,351.5 180.5,353.5 180.5,355.5C 182.39,355.703 183.89,355.037 185,353.5C 185.174,348.316 185.674,343.316 186.5,338.5 Z"/></g>
<g><path style="opacity:1" fill="#281028" d="M 220.5,338.5 C 220.539,341.535 221.539,344.202 223.5,346.5C 224.836,348.01 226.003,349.677 227,351.5C 227.181,348.305 227.681,345.305 228.5,342.5C 228.66,344.153 229.326,345.486 230.5,346.5C 230.343,347.873 230.51,349.207 231,350.5C 232.553,354.299 233.886,354.299 235,350.5C 235.689,351.357 236.522,352.023 237.5,352.5C 238.298,350.922 238.798,349.256 239,347.5C 239.383,348.056 239.883,348.389 240.5,348.5C 241.833,352.5 243.167,352.5 244.5,348.5C 244.833,347.833 245.167,347.167 245.5,346.5C 247.143,351.13 250.477,353.464 255.5,353.5C 255.5,351.5 255.5,349.5 255.5,347.5C 256.167,347.5 256.833,347.5 257.5,347.5C 257.52,355.998 260.853,357.665 267.5,352.5C 268.833,351.5 270.167,350.5 271.5,349.5C 272.55,349.905 272.55,350.571 271.5,351.5C 274,352.359 276.333,353.359 278.5,354.5C 276.05,354.298 273.717,354.631 271.5,355.5C 270.027,356.072 268.693,356.905 267.5,358C 282.526,364.613 297.526,371.113 312.5,377.5C 309.753,377.187 307.086,377.52 304.5,378.5C 304.709,379.086 305.043,379.586 305.5,380C 303.867,380.48 302.534,381.313 301.5,382.5C 302.32,378.817 300.987,376.483 297.5,375.5C 294.382,374.441 291.382,373.108 288.5,371.5C 288.167,371.5 287.833,371.5 287.5,371.5C 274.633,365.282 261.299,360.282 247.5,356.5C 242.013,355.867 236.346,355.867 230.5,356.5C 224.089,353.025 220.089,347.692 218.5,340.5C 219.167,339.833 219.833,339.167 220.5,338.5 Z"/></g>
<g><path style="opacity:1" fill="#606575" d="M 240.5,348.5 C 241.833,348.5 243.167,348.5 244.5,348.5C 243.167,352.5 241.833,352.5 240.5,348.5 Z"/></g>
<g><path style="opacity:1" fill="#220822" d="M 218.5,359.5 C 220.071,362.231 222.405,364.065 225.5,365C 241.386,368.737 257.053,372.904 272.5,377.5C 272.167,377.5 271.833,377.5 271.5,377.5C 266.87,378.229 262.203,378.563 257.5,378.5C 251.441,378.254 245.441,378.587 239.5,379.5C 230.341,375.345 223.007,369.011 217.5,360.5C 217.5,359.833 217.833,359.5 218.5,359.5 Z"/></g>
<g><path style="opacity:1" fill="#618f96" d="M 223.5,396.5 C 221.284,395.797 219.451,394.464 218,392.5C 217.282,393.451 216.449,393.617 215.5,393C 214.144,390.602 212.977,388.102 212,385.5C 211.667,386.5 211.333,387.5 211,388.5C 209.846,386.043 208.512,386.043 207,388.5C 204.479,385.685 202.813,386.018 202,389.5C 201.057,386.891 199.39,384.891 197,383.5C 196.517,382.552 196.351,381.552 196.5,380.5C 202.599,387.784 203.766,387.117 200,378.5C 199.132,375.515 198.799,372.515 199,369.5C 201.171,373.842 203.338,378.176 205.5,382.5C 206.167,379.833 206.833,377.167 207.5,374.5C 214.68,380.368 220.014,387.701 223.5,396.5 Z"/></g>
<g><path style="opacity:1" fill="#8bb7ab" d="M 194.5,303.5 C 195.492,311.316 195.826,319.316 195.5,327.5C 195.5,330.167 195.5,332.833 195.5,335.5C 194.566,336.568 194.232,337.901 194.5,339.5C 193.347,345.653 193.18,351.986 194,358.5C 194.249,359.624 194.749,360.624 195.5,361.5C 196.314,359.234 196.814,356.9 197,354.5C 197.333,354.167 197.667,353.833 198,353.5C 198.278,354.416 198.778,355.082 199.5,355.5C 199.285,357.179 199.952,358.179 201.5,358.5C 202.228,360.735 203.561,362.568 205.5,364C 214.867,371.521 225.2,377.355 236.5,381.5C 239.115,382.269 241.781,382.603 244.5,382.5C 245.873,382.657 247.207,382.49 248.5,382C 246.913,381.138 245.246,380.471 243.5,380C 248.351,379.826 253.018,379.326 257.5,378.5C 262.203,378.563 266.87,378.229 271.5,377.5C 277.039,378.595 282.372,377.595 287.5,374.5C 288.127,373.583 288.461,372.583 288.5,371.5C 291.382,373.108 294.382,374.441 297.5,375.5C 293.2,381.624 287.533,386.124 280.5,389C 281.634,390.016 281.301,390.683 279.5,391C 280,391.167 280.5,391.333 281,391.5C 283.05,390.209 285.217,389.709 287.5,390C 271.965,396.789 255.965,398.123 239.5,394C 234.306,391.909 229.639,389.076 225.5,385.5C 225.024,383.934 224.357,383.6 223.5,384.5C 225.174,389.19 226.841,393.857 228.5,398.5C 228.649,399.552 228.483,400.552 228,401.5C 226.951,399.382 225.451,397.716 223.5,396.5C 220.014,387.701 214.68,380.368 207.5,374.5C 206.833,377.167 206.167,379.833 205.5,382.5C 203.338,378.176 201.171,373.842 199,369.5C 198.799,372.515 199.132,375.515 200,378.5C 203.766,387.117 202.599,387.784 196.5,380.5C 193.923,375.406 191.089,370.406 188,365.5C 187.501,361.848 187.335,358.182 187.5,354.5C 189.007,343.789 190.841,333.123 193,322.5C 193.765,316.183 194.265,309.849 194.5,303.5 Z"/></g>
<g><path style="opacity:1" fill="#302735" d="M 257.5,378.5 C 253.018,379.326 248.351,379.826 243.5,380C 245.246,380.471 246.913,381.138 248.5,382C 247.207,382.49 245.873,382.657 244.5,382.5C 242.739,381.687 241.072,380.687 239.5,379.5C 245.441,378.587 251.441,378.254 257.5,378.5 Z"/></g>
<g><path style="opacity:1" fill="#a6af8f" d="M 287.5,371.5 C 287.833,371.5 288.167,371.5 288.5,371.5C 288.461,372.583 288.127,373.583 287.5,374.5C 282.372,377.595 277.039,378.595 271.5,377.5C 271.833,377.5 272.167,377.5 272.5,377.5C 275.815,376.671 279.148,375.838 282.5,375C 284.584,374.303 286.251,373.136 287.5,371.5 Z"/></g>
<g><path style="opacity:1" fill="#59858f" d="M 297.5,375.5 C 300.987,376.483 302.32,378.817 301.5,382.5C 298.526,392.599 292.526,400.432 283.5,406C 281.859,407.129 280.859,408.629 280.5,410.5C 279.132,412.418 278.132,414.585 277.5,417C 261.198,417.554 247.032,412.387 235,401.5C 231.055,396.607 227.888,391.273 225.5,385.5C 229.639,389.076 234.306,391.909 239.5,394C 255.965,398.123 271.965,396.789 287.5,390C 285.217,389.709 283.05,390.209 281,391.5C 280.5,391.333 280,391.167 279.5,391C 281.301,390.683 281.634,390.016 280.5,389C 287.533,386.124 293.2,381.624 297.5,375.5 Z"/></g>
<g><path style="opacity:0.999" fill="#230825" d="M 305.5,308.5 C 304.686,306.369 304.186,304.036 304,301.5C 303.708,315.049 305.374,328.382 309,341.5C 309.333,346.167 309.667,350.833 310,355.5C 312.381,356.435 314.881,356.768 317.5,356.5C 317.414,352.143 317.08,347.81 316.5,343.5C 316.369,342.761 316.536,342.094 317,341.5C 317.934,342.858 318.768,344.192 319.5,345.5C 319.5,345.833 319.5,346.167 319.5,346.5C 319.5,350.167 319.5,353.833 319.5,357.5C 321.099,357.768 322.432,357.434 323.5,356.5C 323.512,350.129 323.012,343.796 322,337.5C 320.184,331.223 318.684,324.89 317.5,318.5C 317.5,317.833 317.5,317.167 317.5,316.5C 320.299,317.233 322.632,318.4 324.5,320C 323.335,315.832 324.001,311.999 326.5,308.5C 325.717,312.146 325.55,315.812 326,319.5C 331.252,332.596 336.085,345.763 340.5,359C 348.594,359.76 356.594,359.26 364.5,357.5C 372.94,357.437 378.44,361.437 381,369.5C 383.032,377.734 380.866,384.567 374.5,390C 371.692,390.993 368.859,391.827 366,392.5C 355.556,392.465 345.056,391.132 334.5,388.5C 333.5,388.833 332.5,389.167 331.5,389.5C 319.943,408.939 303.277,421.606 281.5,427.5C 283.224,425.311 285.558,424.144 288.5,424C 281.044,422.747 279.044,419.081 282.5,413C 281.619,412.292 280.953,411.458 280.5,410.5C 280.859,408.629 281.859,407.129 283.5,406C 292.526,400.432 298.526,392.599 301.5,382.5C 302.534,381.313 303.867,380.48 305.5,380C 305.043,379.586 304.709,379.086 304.5,378.5C 307.086,377.52 309.753,377.187 312.5,377.5C 320.769,380.151 329.102,382.651 337.5,385C 345.391,387.094 353.391,387.761 361.5,387C 362.508,380.12 363.841,373.287 365.5,366.5C 365.539,365.417 365.873,364.417 366.5,363.5C 364.604,362.534 362.604,362.201 360.5,362.5C 359.596,363.209 359.263,364.209 359.5,365.5C 354.167,365.5 348.833,365.5 343.5,365.5C 325.677,364.641 308.344,361.641 291.5,356.5C 293.924,356.808 296.257,356.474 298.5,355.5C 294.984,354.707 291.65,353.707 288.5,352.5C 292.154,352.942 295.821,353.276 299.5,353.5C 299.5,352.5 299.5,351.5 299.5,350.5C 299.622,341.026 298.622,331.693 296.5,322.5C 295.749,316.801 294.415,311.301 292.5,306C 292.8,303.976 293.633,303.476 295,304.5C 295.936,310.769 296.769,310.435 297.5,303.5C 298.5,303.5 299.5,303.5 300.5,303.5C 300.351,304.552 300.517,305.552 301,306.5C 301.311,304.444 301.811,302.444 302.5,300.5C 303.274,299.289 304.107,299.289 305,300.5C 305.497,303.146 305.664,305.813 305.5,308.5 Z"/></g>
<g><path style="opacity:1" fill="#557d8a" d="M 307.5,380.5 C 312.167,381.833 316.833,383.167 321.5,384.5C 317.057,395.45 309.557,403.784 299,409.5C 303.689,400.577 306.523,390.911 307.5,380.5 Z"/></g>
<g><path style="opacity:1" fill="#e19962" d="M 371.5,364.5 C 372.496,364.414 373.329,364.748 374,365.5C 376.151,371.63 375.818,377.63 373,383.5C 371.54,386.21 369.54,386.876 367,385.5C 365.517,377.8 367.017,370.8 371.5,364.5 Z"/></g>
<g><path style="opacity:1" fill="#4e4e5c" d="M 319.5,346.5 C 320.479,349.625 320.813,352.958 320.5,356.5C 321.5,356.5 322.5,356.5 323.5,356.5C 322.432,357.434 321.099,357.768 319.5,357.5C 319.5,353.833 319.5,350.167 319.5,346.5 Z"/></g>
<g><path style="opacity:1" fill="#88aaa4" d="M 301.5,325.5 C 303.835,335.511 306.169,345.511 308.5,355.5C 306.409,355.682 304.409,355.348 302.5,354.5C 301.682,345.502 301.016,336.502 300.5,327.5C 300.328,326.508 300.662,325.842 301.5,325.5 Z"/></g>
<g><path style="opacity:1" fill="#788e91" d="M 325.5,338.5 C 327.252,344.664 327.918,350.997 327.5,357.5C 326.5,357.5 325.5,357.5 324.5,357.5C 324.5,352.167 324.5,346.833 324.5,341.5C 324.263,340.209 324.596,339.209 325.5,338.5 Z"/></g>
<g><path style="opacity:1" fill="#86a2a0" d="M 305.5,308.5 C 305.982,312.873 306.648,317.206 307.5,321.5C 308.35,326.232 309.516,330.899 311,335.5C 310.825,331.143 310.492,326.809 310,322.5C 312.034,329.665 314.201,336.665 316.5,343.5C 317.08,347.81 317.414,352.143 317.5,356.5C 314.881,356.768 312.381,356.435 310,355.5C 309.667,350.833 309.333,346.167 309,341.5C 305.374,328.382 303.708,315.049 304,301.5C 304.186,304.036 304.686,306.369 305.5,308.5 Z"/></g>
<g><path style="opacity:1" fill="#656977" d="M 325.5,338.5 C 324.596,339.209 324.263,340.209 324.5,341.5C 322.513,334.719 321.346,327.719 321,320.5C 322.6,326.468 324.1,332.468 325.5,338.5 Z"/></g>
<g><path style="opacity:1" fill="#8aa8a5" d="M 315.5,311.5 C 316.167,313.833 316.833,316.167 317.5,318.5C 318.684,324.89 320.184,331.223 322,337.5C 323.012,343.796 323.512,350.129 323.5,356.5C 322.5,356.5 321.5,356.5 320.5,356.5C 320.813,352.958 320.479,349.625 319.5,346.5C 319.5,346.167 319.5,345.833 319.5,345.5C 316.97,334.65 315.636,323.65 315.5,312.5C 315.5,312.167 315.5,311.833 315.5,311.5 Z"/></g>
<g><path style="opacity:1" fill="#5e5e6d" d="M 301.5,325.5 C 300.662,325.842 300.328,326.508 300.5,327.5C 298.948,322.725 298.448,317.725 299,312.5C 300.05,316.803 300.884,321.137 301.5,325.5 Z"/></g>
<g><path style="opacity:1" fill="#24162c" d="M 315.5,312.5 C 315.636,323.65 316.97,334.65 319.5,345.5C 318.768,344.192 317.934,342.858 317,341.5C 316.536,342.094 316.369,342.761 316.5,343.5C 314.201,336.665 312.034,329.665 310,322.5C 310.492,326.809 310.825,331.143 311,335.5C 309.516,330.899 308.35,326.232 307.5,321.5C 308.573,320.342 309.739,320.342 311,321.5C 311.95,320.978 312.784,320.311 313.5,319.5C 314.168,317.031 314.835,314.698 315.5,312.5 Z"/></g>
<g><path style="opacity:0.999" fill="#220626" d="M 174.5,340.5 C 174.347,346.869 174.68,353.203 175.5,359.5C 176.266,364.796 177.099,370.129 178,375.5C 182.904,394.72 194.404,407.886 212.5,415C 202.095,407.674 195.595,397.84 193,385.5C 200.59,396.425 210.09,405.258 221.5,412C 230.619,418.04 240.619,421.04 251.5,421C 240.648,416.647 232.981,409.147 228.5,398.5C 226.841,393.857 225.174,389.19 223.5,384.5C 224.357,383.6 225.024,383.934 225.5,385.5C 227.888,391.273 231.055,396.607 235,401.5C 247.032,412.387 261.198,417.554 277.5,417C 278.132,414.585 279.132,412.418 280.5,410.5C 280.953,411.458 281.619,412.292 282.5,413C 279.044,419.081 281.044,422.747 288.5,424C 285.558,424.144 283.224,425.311 281.5,427.5C 254.936,435.448 228.936,433.615 203.5,422C 167.149,401.8 155.482,371.967 168.5,332.5C 169.458,332.047 170.292,331.381 171,330.5C 171.333,331.167 171.667,331.833 172,332.5C 172.333,330.833 172.667,329.167 173,327.5C 176.698,322.361 177.198,322.861 174.5,329C 175.13,332.777 175.13,336.61 174.5,340.5 Z"/></g>
</svg>
